<mxfile host="app.diagrams.net" modified="2023-10-22T18:23:16.938Z" agent="Mozilla/5.0 (Windows NT 10.0; Win64; x64) AppleWebKit/537.36 (KHTML, like Gecko) Chrome/118.0.0.0 Safari/537.36 Edg/118.0.2088.61" etag="GouRMtuoARu-GJb-wdH2" version="22.0.6" type="github">
  <diagram name="Page-1" id="XfFhXpWsOPubnErs0BB5">
    <mxGraphModel dx="1585" dy="1548" grid="1" gridSize="10" guides="1" tooltips="1" connect="1" arrows="1" fold="1" page="1" pageScale="1" pageWidth="850" pageHeight="1100" math="0" shadow="0">
      <root>
        <mxCell id="0" />
        <mxCell id="1" parent="0" />
        <mxCell id="r5jIDg_zJhUNZUnPyhJ6-2" value="Backend" style="rounded=0;whiteSpace=wrap;html=1;fillColor=#dae8fc;strokeColor=#6c8ebf;" vertex="1" parent="1">
          <mxGeometry x="-52.469999999999985" y="-20.000000000000007" width="875" height="560" as="geometry" />
        </mxCell>
        <mxCell id="r5jIDg_zJhUNZUnPyhJ6-1" value="Frontend" style="rounded=0;whiteSpace=wrap;html=1;fillColor=#d5e8d4;strokeColor=#82b366;" vertex="1" parent="1">
          <mxGeometry x="187.85999999999999" width="341.48" height="180" as="geometry" />
        </mxCell>
        <mxCell id="r5jIDg_zJhUNZUnPyhJ6-5" value="" style="shape=stencil(lVjZbhsxDPwavxLUSek5Tf8jQJzGaBoHTnr9feka2iyp9QR5W681Kx7DEaldunl9vHvZ7yK/vp2O3/e/D/dvj7v0ZRfj4flxfzq86dMu3e7SzcPxtP92Ov58vr/8frk7rzw//Tj+On/hzwUXEomcUZH/Xt4wtfz/xdfL+qfD83q9UMhmfaUsYH0j6WZ9CCRog04lWEChwtcBanAqBqBvYgCAQNG6EAtFtEMkiQaQmHIBgEJsfUiFWgcAoVoNIAdKwIekf7MF1BG3bUChap0ugUq8DshMxYa1VApgh1yoN8sMnAc1IFnq1UQdUEMNiNbpKhRBHtSAYgHCFBAgU3eAODKzDWhUrA+SqYF6kDDKawFUasAk/V51OzSqCQCa36EFqiDTLQ4yLwDNA2Brm7jUVARA4lrzmW6duF0H9OBrWt8IMKlnrxr6BulS7yOIC0Ag+RTQrQ+9fbQDswegsHYlgjOpQ5npqt3sAQLCqlHvwQM68EEz3doEQNSIxJMPDbNVigcgXdJyyZPTiEtShgqt8lBQiZYhvSsAIx8qVXvGKZcKAnSK0QOQtmpYqzNJyYJquo4grgAVkU+lMnuAAB+0vuIEgAW0aPXK6QSOXc1rnEpUUK/BvFFyEXmtBVY9ANFVLahTQaCDWsM0FzVMRJi4oSUHTGriw7SKwzYiUZRpCwBQvkqdnAC5FiGeABEBykYiUJv4eQBPgAz5qr2FO0d7hP1MVZMsN1RvMwirtjvNHbxa1ajbUHW13GgZHrxloc6qF4AtlgxZWbqNPnrZaz0ZW+2ThY/bgORNOgs0MikMFxdAIgaALNMOS+63AXmjrywAkLTmLZe0cUSNaJqcfm9NtwcC7S1sHjTQCTgdk4+Sxk1A4nTOYks+nSAqUtfindYZJYMzKOihZXfQIQQ1D0HnBVtAOmehXqAND9eDHNIA3y+dJ0U0Dvhz/TyKgvVlKNBq1kWndPLFVmGjPp1uAco8ew1m2Byy7xgY1kAYdHxfngB7dMbobjnS0uTnMB4ycyXw2V9iMOohKSS/HJ2XI26r5UDhlMauf9ShE9VJ8HWCWal1Jf77sA5VGry7aID89JXQh+v14f3+6eHw9HS5vlr/7++r9NXlrivd/gM=);lineShape=1;" vertex="1" parent="1">
          <mxGeometry x="374.7900229290053" y="271.18583534171034" width="20.477897396326625" height="153.63740171801408" as="geometry" />
        </mxCell>
        <mxCell id="r5jIDg_zJhUNZUnPyhJ6-6" value="" style="shape=stencil(lVdJcttADHwNr6jZl7Pj/MNVliNVFMkly1l+n54wpDUYqVW+UeS0CDQaDXDyD2/bp9fN5Mzb+XT8vvm1ez5vJ/9lcm532G5OuzOuJv84+YeX42nz7XR8PzzPv1+f2sl29eP4s/3D7xkXJJcGcubPfMNVKfbfna/z+f3ucHHeRkmxA3gn7ectgHMSaw+wYisBIIA+JG8kEIDPErIGmHQbEKLYIen/NFwFRCfFaEA0BFClVg0w/jYgJQmhBxTx5A056zq4JJHkUJIY1wO8FFK4UpbHl3WIBFCXMi0AWySTwlUjqa9DFUe0V6E0RZJkkkENC+fLeeiCcFqjlJ5TKz6Q81mi7c6nRevXz4PRPn50k2MBQZZKd0kcKbI1a4Zr0Yok0gvtFX0O0YohVW5J9CQlJ5YBwFJfhWy4LFCGvp8ztEuybnXuQ0J3BJY0hJR6QKAG0JTaSzuhPVnzrP6w0opeyJ/ptpDF8vbMqj0DVV9Zm2sVk6O+iqRdXzjrxDCA1SwFCYxVL6FPwfCyoVuiPs/6M2kXRjzEhCFtZcItYWZIVU8eUOoZQ5gLalTdoajqXoAs7oR0BUA8BnMhqCobbpPj6MFLLYlpHG7wBEbTOD5RSuZi44AGgC0Z4woAcVWSw7hkAJCImMY1pnKzHxcl+BpbMsZVrDUU23v0rvfhtNdzXhK8CIhxhARUmblfWJ1wwagg8RhtkQWGQwgyy6y8cPlIJtUwOyFctiEN5+HxhfA/xINRa4mEhnxDoHNw4BOzn42QoV7eUz4HPWAhZDPts98W98/j4uND5mW338/fQZfP9YcPbs0fTf7xLw==);lineShape=1;" vertex="1" parent="1">
          <mxGeometry x="378.9777344308741" y="285.523960872702" width="42.30262952321846" height="6.167810431481598" as="geometry" />
        </mxCell>
        <mxCell id="r5jIDg_zJhUNZUnPyhJ6-7" value="" style="shape=stencil(lVbZbhsxDPyafSVEUedzmv5HgDj1oq4dOE6Pvy+NjbYms5kib7LMWfGYGWmSu5f9w/NuiuHlcj593/2aHy/7Sb5MMc7H/e48X3Q1yf0kd0+n8+7b+fR6fFx+Pz9cI6+rH6ef1y/8XnDSqMQrKoY/bzsUl42vS/xhPt7E50SZTTwHyuFjQK0UmgHERAmc0JlCthl1mBKHQCEYROFR1XYRlTgZQO+wiFSpFw9429kEaMoupa6NbgDAFB0gUwMpxUzSLQAXHSNxNYBWKFcAYGp2co2JQQ062GzbWgsFlFKnZmuouAapJJYbpVECc0iF2A6uFGoZUEPbWj2ggy6VRCH5lBoDQeikbUp1ncw2oLwDFCodABpl8YProK2q0WZNoFWK6IQ0FLmSL44kt7vUKDi2FnhCCd42VEBIcZn9HG58YZsb7NmnohYAEKHCvgjU16je52xDiAVqtLvJNRJAJtVosVW3COmq9i5Oo5UKAig3HACfIGkY3SqIPlS7PYe1JyugDjP8EBA/BVBjci6QIEDtu1o3ViOB5iqDOeulpYIAg2s+Xs1TwAF6Z9oe6eQ7qEB5YY2SOxRDIHbxmSrQ57srlyMlwAoe3ViVQBEIQai6CVMEFNJrwVJOxvy2k+HB4DV7quDzXL3dBUqgOSpjpxnsRMqGHFw8Ur0aUSsu/4TiP/nI+3+8Lv69KJ/mw2F5kN7+71+gurW8XuX+Lw==);lineShape=1;" vertex="1" parent="1">
          <mxGeometry x="409.21615101090265" y="281.6070743127518" width="9.30794881411839" height="15.921669975884129" as="geometry" />
        </mxCell>
        <mxCell id="r5jIDg_zJhUNZUnPyhJ6-8" value="" style="shape=stencil(7VpJchw3EHzNXBEACutZlv+hCFEmwzSpoGhb+r0THqNnkD2dlG4+6DYLsoHashb0yd59uf/w+e4U/ZfXl+ff7/5++Ph6f7JfTjE+PN3fvTy84tPJ3p/s3afnl7vfXp7/fPp4/v75w1g5Pv3x/Nd4wtczrjXn20BF/+38SzYX87+//HoGPD48XQFqdTkugNSdTwLgXa8roLgqdijJFb8CkqvhGJCbC3Sk6Jo4Ug4u0w7BBX8MwAGaLQDrUobkne8MyAJg0VnnI/33iJuA2HZ2gNBFAJIzskN2sQqAd0ZagqKFDKG4ElZfCi4JGQJcbRU6ZxeE4YJ3hby1TcvcBDRX0rK+RHmi6kpe12dXhWNU11adwttN6BQC1PVA1ZwJqwXsv3peTS6IYIDVKHqwQxYqimUHCDNib7sqnldWJXUpNIKhBtaqCSsg3BIBoqtCS3BMctXcp+WPGKCRIxWpVjhmXO2QowtNk9KqpQRnEUIXz76aTMbn0MkKMHCCkAHEasRiNr3rNiC7tKo1guujAJT59wZI+kjF2SoD/DfqHUgGsE7UO4Q1RAMoQKk1u77u0F3QSiJeNZl8sJ6ylTkvKGasX0kSqUIJDKOtrh1cEbEz5CUFOa/0U5gjvcvKr+tU92V9VPpprE8v64tBPpHXK8r2s765rFf2BRuGQOuT8FCsb/z8pgoquCN5tCRHrG/reaKMSazvjdbLlBb5/F3Li+evJBFA36og3OqUq5hvagcECEkMHxHcO3LqKrIVWRsBQHkcKagrI6SZU6/SQVFazXwkZKistFTYTRGoKqWhMCdmvFTetwGNZahZ5vHaJ7FtgCZTWoscys0kVzRofd2hoVcQR2p1ppcN0GddfBPQPbNXjzLh9DI7gw1g0g59x3cAdLVD2x1JJ83euX3pedr+CNBphyJzyA0AvEuQGABpTVKQSh4JQq+sjUeo5mKoNTFAFS8Q0a80E7zODFB72W3RlamNU0/XXd7wtcRqaoLJemD/hh4UMQEQCVAm/x8BKEbhTF3JELheAMArZ0KCWA0BRUfBxuNvUivqVCVD3jmTzV+OnMnbbgel1uZi28mgjtSniNda0jHKaTdLw11585VvSEOgJ9oFqQS0HQ20meyP9EqpfQSE4G84J+WgC/UcmZqqsTej+ocRrc2+6zvJDGmLkvvIGirPeW4/ESSyyNoNMpDnTJcP1Pa0rYM9qmiozRjpXldlFKXYU3lT3VUDKJWTqowDZ9JLf3lU2ufVX1FkyZ67M72ijGuq+Wm72WTW/Wqd9ctWita32itqP8ekT/DAaHAJgAZOzVczu3dIsqIpiTuOPidAPzvcs41TofU/O9wl8P9fHa5N81/8U7ZixqO8JjPzWL/6c4haYJujxOuhlu5X/W5sptoeqIhG8zFrHwqzZ7ka/alODE7HVyRJjubh1URDplM/wozcGtwr42bHW9nLHqMEbnCzHgPkNgPlKuGo2Qeel1fXKLojxompQIIalAypcJ806EBN5yN3DCOe1FVVZTqtWR7JjKtCVAqqtIiFK9vaZTyEthsD+Mk5twGB7+ea5uDMAVerbEkCX6tWkzlzV8vDzCp6vCvkFtudyW2V8hSjeHkrlDil5TKT7u3wZ69DIaUGBjAA39k26aYhz+ddjeiSuu/cqTShNxaUB5mpT7Umg9k887wVKbRlLmhNF+XJc8dmmpBG9BvvoCYS2ZhfTDeR8BuyA7TUVHVXeXqbtkvQo+RGR3rjZhuhS702EkNQXeeu4IHzvTFVoSo+bTXZ0cyD7871CwMAlHWH7PWQJPLIOusp+g2ALsPGkToDuj4S1alZX7VBrc0zQM4Xwkw0G8Bkqd093yQDoGIabTWNkkaECLW2xnXP2EFY+offuPkOAD5cXvD59PD4eH4/6Pp/fiEIP51fJrL3/wA=);lineShape=1;" vertex="1" parent="1">
          <mxGeometry x="424.4813861099655" y="284.212630848385" width="4.424663602071808" height="6.088501760767228" as="geometry" />
        </mxCell>
        <mxCell id="r5jIDg_zJhUNZUnPyhJ6-9" value="" style="shape=stencil(7VrLbhw3EPwaXQm+mzw7zn8YsBwJUSxDdl5/n2IU7i6LO7VwECAX3VYj1gzJ7q7uavIuvfv68OHL/V30X7+9PP98//vjx28Pd+mHuxgfPz/cvzx+w6+79P4uvfv0/HL/08vzr58/vv795cMYOX798vzbeMMfr7iQnIWBiv7P1yexu2Z/P/nxFfD0+PkSEFyKCyAB0AXAO18WQK7yC831vowv2eWgxoe8jK/R1XI83lxZF2DB+aTGe7+O7y6IBdf59Tm+VZe8HL+utwfXxfyr6+t6e3FdvN9csHW8uRbleus6vrkk52Pb+CbHx7aO7/PJ1fGF9xPjq7BXdj3w+Cben11Y7Ru8nya/CkguGn+gC4eILtdtQlVEjLO0LVgEQHBhW3AUBvCukgPBYOL9fpr/0iHk+EjrNWfCAJ4DDAFgYj8xfg1gBFgUhOJdXvcTARyFAwUOGBBEFOuN7NAgoCTen9ihS3IpqwBI63xydkXMx1xex6cqAwwMTREATq0qB5zmewKAsgSlhI3j8CSqkIGNCRAkqWNTbQWYJNGRNVYnLTrmo+urkaMzsUWpubKOP0XpdRJCjludGkYR8y/elUzj1fxLnS5zHl9UUorT5c/zL4rUbVLIyelk0rbIdUeV87c6c9aJJCTHIcTrGgTDaUVQtsAsFGwmkusAP8uek0fEafOjKVGiHKlZxL1hT1cbp+CyAhSOy1RmtXZkBUpl8Fvl1rVxLstBA0BVK/nC04OwQymurXbIp4LnOgDkTACT7JU7FwgAmIrNxgkTgCISeN4YGE+isAOWyNta9ZQKuzcAXsQDAFQl44mqSmGmvgbcoChVRhUOoIxEp3YJE1gDKEcpDMYSjQFBA4i04a1FpB1YmtJODvoLfZLKCeBlJoSWoeIIa4iaiFvjbc2Kibvzm6UlVdYNgHgQEdcSKwRkoy5co/Xp/ReSTmXznjn7lDaL4usAhPz6hZpcEFNCiUwqEBlMFZ0XouBUYcRpy6NPeKo76/zodQCqpNXUyDGK73vkGIVpmkpyxs6E0llJC2RFIzHbtLguHEEwvqLvUTiQ/PWSZ6pnUwOQhB1QXRMAUzLNxn1ftGLjMAPsBDAZo0Njkx2SlCS7CG5RBgRUbSEASnSxS6jXyA6jIlKqJ02SuJBVXXDlENqrHazpKWWmbwC8cI3RWqCIs1lWH9mB3BsAlUZRdZIWGwCxSwnMuE1J5d0UOUEAoNo7KW2LbpK+ATCyQ5e+NAAr84GXpPhJU7tc+JKJbcWiGYBaWn3Bs9xDAKlaOm4pCIAsthWuUT0DlICA85GKxhq6DtFmDIhqDZnzLrZVNQ5GiK6uAcMpPQAAe2vXOj1zaWy6WQgiM4ppk9wajQ1nWjVB2bct7arqJO39IZNF33cDUDmTzILhlHuPspLyQ5y1wVFZ2bd4qCrtbuq1ZVkw1coCHwDlGoN6E09JUWUrWxb1koxHGicyLrJ0QKFATRkUy6r4xhcSdSmKtEPbmvOjF6hq6a2EK32qnKNtJV4qVSZFC9wUQEGk2oeQ7KTAIbFVrwgzpgZ0udGMepPs/wDeJPv/Itlpl25I9sJ1KwAqT4NbO3XVbPa/j7g1r2tIUU6pNpYDUZdw5idXnwB1NsCPWCNSiz/KUhqAvE4pNC38OnfgQ5R5GoqemgJNngPCbuR79ZbrbUcCWZXF28FqlQ3j2NkGwWuVWOb6LnrYWQmmOBPsRQ9bqXWYqGxWVkYLhWkSq1JuEbZzk1RnV/s6IHDXZNCaaoJw7Ay9L68XpC1DV3l8Tls0EqrKt+ylpo+3jRXljdNMm7Ll1P7Qp6Vvx/9vx//L+H9x/L87xH96/E8B1ovcH78ZOOgLSNwfGQEm7Bu2gO+yTgssvZBslcNFPokFAck8w/OH2JNHyVu5UidpHwQYpb3UpWQxLt7jLYLLdMOs3SAsau2cKfuI0Nf9GUf/33O/LOrqrHM8nm+QHZwU8NHC+UbGUcojlXlOOkdJlU5sxqapGy2R719gF9SdNxQabOQmz/MBoH7z6MPoOyS8rV228b//puJtAH6cL0Z+enx6er1Xefl/vkiJR6+XMNP7vwA=);lineShape=1;" vertex="1" parent="1">
          <mxGeometry x="430.6046617722794" y="283.89363001209273" width="3.669441658827167" height="5.732030378362263" as="geometry" />
        </mxCell>
        <mxCell id="r5jIDg_zJhUNZUnPyhJ6-10" value="" style="shape=stencil(lVfbctpADP0av2q0q73pOU3/IzMhhSmFDCG9/H3loSZe2ZyGN2N0vLocHWkHeXjbPr1uhshv59Px++bX7vm8HeTLEOPusN2cdmd7GuRxkIeX42nz7XR8Pzxffr8+jZbj04/jz/ELvy+4wEzMIyzyn3+vphdfL4D97jADqJL09olUgX2j5r4fKCQAKFRqDyiUGgAIcegAUUjKbUArpKUDSKAcbwOqksY+ZqYiABAnjydAZgoAUBI1B1Bq4TYgV4q9S6WRAkBSyqkD1EoBFC4Jlf6ElqYzVwFizOhPaJY3QCVplHpqqJ0ACmcuhT5LWokBl6SS9lwyOgbAJTshR38CisHqWoMHVJCl3KiqB5QMqFGmus5PAJWuyVPDAA0EPdK7LLIEXGrLLDXKIEvGHEe+URYqAERqLktKEbhULa3VAzIKOlJhD2ioRTNx9AAFMeQyfe8qZB9iu86+5lVAcQeluOJTRS1nZMoekBDAyBQ8ALZcInaVa1RAU5tLeQGISJgCJUfXCkdQaiuyUXHleHECiqFcdWsOQOwLpOIBSO+N33GhZIx61PgdPECAS9ajaVGHilWguhgUDrnGC7038iEVuBdgLbpIkoK6BT+mrQpoN1nsSuPAgvauyjYRG7DPnqhWFCTEtkrxcqiD6ROsF3uArQ3Io1imJWG2mCBWiEzTbLb6MKiZrVJO9OxNRltA9THIVRHWsyqTnswXRDSjbeHsZXVcQUHQ+dq8n1xyDSA9AG/R5pHrZrylj+thnyPbU1CKrHPZ2Wc0DKPvNCbBw1Obsw+AFJV9vDxJ8rp9pqLeHi0k7Df6/9gX3/nYH73eDz4Xr+lIznfk03Qqe/9RvcZbm68X4sPd18JPAOzh4xb6stvvL5fY+f/+1mqvLjdeefwL);lineShape=1;" vertex="1" parent="1">
          <mxGeometry x="435.8017413622315" y="281.32484795404065" width="0.5056287495174256" height="10.910442913857969" as="geometry" />
        </mxCell>
        <mxCell id="r5jIDg_zJhUNZUnPyhJ6-11" value="" style="shape=stencil(7VvLchs3EPwaXlF4P86O8x+ushyxokguWc7j79MwC6tFY7dZueXgm0xiCGAw09PTgC/hw7fHT18fLt5+e3t9+f3hr+vnt8dL+OXi/fX58eH1+oa/LuHjJXz48vL68Nvry/fnz7d/f/3UR/a//nj5s//C3ze7ZlLqRt7+c/sgmGp/fPDrbfjT9Xk3vJgQp+HOmZLPx2fj8jy+mFzOxydj3TTeR5P8+XistszL96a48/HetPn3ozM1qfF+/v3kTIpqvAvT+OyMF+v3JszjizVe+B/rp/HVODE+8H4r/NmU/90cDrWNFZ7EQ57905zJYr/OGjsHUK0mig0gvkLjHVQRcc6PA90M7NjUsUEcHt98Gk1WS0omzJvO1RRlkI2fl5SDscKrMKhz2qQ6fuLYoJg07yF5k0Wc9jSkGZAIaknFNMsGTmSaqyPwNwMrUwcGqbGBPLhq2mwQm2kqNJqJbjEQ2QCD6nhJMp2x4sIGWSwJBnEBGK8NynLSViGGHee6M6gKwixjagqm6E2zlzTI+A1Dd+HdFGpvW9wlUK3SIM3Bl5vMBwClqzMIIMuVW6OxcwIBZoJaEqB1XhKATEElsJWWBKhUJx0QS5VniKLYola62a0V6C1AIIThxH35EScdUM/nWAK2KtQImVO0H5wiAAvy5SQTKACXaAZknAgNGOTZrQhvWXNxTLNBBLSpc8iDc20GCI07biUg03CPg6vzwcUseU8/6aU+eBHeWFKMi5eUQeWimDbydGgQLddpoHcVXoJPCIyx6SaWBK8TOYlBFvaYTKGTRg6qPYA/E90ucgaUjzafQz97sYcO7oVnsCI0cEwcS27wmzODNC+pu0HtITF69yqq9pDYS+nOptNIl80ApV6gRsrcx+RogkANbDrOM2QvGxMsyRNqVEkd0gICOEoVS9hinQsKokuFN3CuLbhUxAwosox8TsIMoNcS50sylvJ6DlZia154a96A59igcfAVAJlADTRgYd5DKbLG4fcoH6rXPTRaVOqBNlg4Noi8JHRZRS0pmkI9kG6jQXYi9ZVIIJEPJXONK0H2DzAg3oqmScE9vO6XjGvKS4h+Cr4qoxWELRNv9bJDwblSt3snRd+b7V1RVDBT84IaRfZAiBxq8JFASc3QFiCLMkURasy9q5QEmmf0RsBbwfla4ARCOKpobYnZPXhrUjPkkS6bQRrBcmzQmDr0jFObbsyM4QaVDzAgJadFqfw4a/kgWpIsEVMQ6WsIJhHfMKBmtFVZRvE1b6LpYKqsp3U/qJMDva+LgZohs07RNonzzIAkOCxSujVxymGRURsQ9GFOK3K0G9AMUSZ1XxKddJCw0Te9xPc9t2Y2kDOU0UluBtYUHRp8DpsQcRp8lZekqEAPBHKrhu+eQJndqpSQ4xxV5OE9/HexoQTyDjRkUAfpOoUyIg+gRGpJlTtqGBTBK3HUpP/s/HBmsa6pqKPLB2uSu87LWd8xCEzKeh1Te1jIQK2ytrdVyQ5S2kCppg65cyIBlp0MUCEN8jYEdCMt1w8KmbDiQvQ7yB4chZlJ2RbAZ6SM5ErwE3XDBAMqKaD8khy3kcN7uiHiGwZ8KaIvOUrlOlqL7jmWruZO8IFNk9rSYUOx6ciSa9OSKzhbWAycACZEDmkhTTftXdijnHayI+i8ky6zspT60F3SBUGPLmWQlnxII7qODaKxdLPTpDCdPfPEvEmkxwaWL2jREajODPnllr5JGiyVundmIrzRwxCvxNkrMbG3VdRCFMmmu8xAMKO5AAwoNFKWrVy/i5pBoIsnaoYlvGMYd9vHUl9luI9ZIl//epHJpCC65HQK8jor+pEuu1jKSqNtLCZmK6W+UHjTWV82hTjKx66gSL3fj693M6jb2mBZC0GGqD34xjMkLTHBYH0koBpev7g1bvf6Z5smYTpkedkUErPEfgOg7l0qU91wRyt3R1cQSiv3rOcgvFWvCINI56CZQNf7FxU4iIPDHshLHc/Vpi3rzFlXUSRQXGQyRXRDZQUVZEKxmR4IRE6CvjtalGyQE1WyEHysCjgdfHahDlFeQfgNenfUIYl88Et4tyhpqA8sxDUv+7J+47ywe8WM+yU4ibp+NOXHvWJjolu0OuO2tm2nZKsK5Ooi9aUhJJ8Z2EWNl5rUz2cnP2Dh57OTw3z4nz07gVupF+2XTQLI3Eqlk07RJfj6ZZN+6EWx9N4KHhsk1jUA9xJmAl8r9hd9atOOD64FrZWzeo9WtIrxhWGsa7yKFx/0lbKELhKcfqLqWNLodwOClyxAjwqt9mvH65Jdt6To5CIhZievRC1raf3NgFxPmc836u7Nccca9PsAz/JK/0SRWy7+Thf/5fXlvReqVAQ10C0PWrVqXbh90Y/AKitJVnbalW9ltaxa+drASslzqWNWS9Ucx3YU/5PhkYffQRE+JqnlMxH3Wt1lz3ipljVmKUG+EPuPb+jvDscf78/1v1yfnm6v/fff8/N+fHT7rwHh478=);lineShape=1;" vertex="1" parent="1">
          <mxGeometry x="438.35229599454794" y="286.9010209861632" width="9.646502420758598" height="4.512271262529448" as="geometry" />
        </mxCell>
        <mxCell id="r5jIDg_zJhUNZUnPyhJ6-12" value="" style="shape=stencil(7VjLbhsxDPwaXwlJ1POcpv8RIE5jNI0DJ+nj7ztbV1uLuztBgB566G29q7FEckgOtdOr5/ubp/0uuOeX0/Hz/tvh9uV+px92IRwe7/enwwuednq906u742n/6XR8fbw9/366mVZOT1+OX6d/+H7GNXFpAgX34/wiidNfLz6elz8cHoflbVwenGjZXu+9JB0AmiQxgIofd4hJSiOA2D/PFhTRRABZYhkAuUpmO1TxYQCUKi0SQJM82lBzd8MqIHhrQwsSOaCNNjSVSowGoBpAklApILkRkCUTo0GEWkdA4Udy4uIIqFK5W93IpdYksUgXad4CGqdGGQPnHU7pCCJJDnaL4ildU7EAx9inkot1kyeR80HaIhAuUIDJUXCjMKNVwhi5mqRyo+MYiIIcZTvk/nnO0cxDDeqMcUjznlv8Nm6Ngbo1RJtB6qSwhKiio1uxpyNH0iA6VoHJ0cRLWvrn2a20VEb8nXEStSC2zps5zj1lV9cnFc3WgMQACPNIVeR4IxZkuFxtEFhlzcWWMQSBMa9k8caGQqNWo+QFoOVtANI3jGGeuirJTxQI07DAlECMvihaMwLsJX7FFnVMUHArszOhA46BiE48Ew5FounroXt6HQCdMJIP9E0kcuiAanaItHY3v5AaqLXEhtp6hbiwIZIdarHdAV6KxOg699g5DpXaAIAxGvoqkEgDUBZkyozfZaXuMfbBSyZwKBusFCMOacwg1DElZQORLguAZ2xNVgi8USnBVuMl5GggshUJZLiknhuNnDcpqr1vbwJGoxWh5GXD9FBtvSNt5bSpGtHTpgtFaPoPEsizwCEhqwU0dqSFbI1c54J81RwpdEevA+riSCgLJNLrABI4SJ045gMyjqnQ4q0OQBFgkc6Y2UZqYGZiWj3N+u4C4MmRklvYgK5IvBRnuTYnEMYupk2CnWjQRpl2APuNgJvUDOES8suIUDRFJW6dpEVYeIlpytpb4MUo6gn54BMzWeZGx2+I0DhSo2DWZDv8nyx/l7a/PlkGC3hrsjQq8Z+YLKt10/snSyZE3z1ZOuvXOg92G/dRZTxRBVmYOLEDR3FdXK+XVttOEk/Q1FXCXDIK/f+4EOp82vD2ggJvIuHdYhDIVLs5O/DNQ+/GcjPJaFdyG8vNjB76vLhhq5GFni4PdkpyVNeqrUKOShckVzPLWfYm25wczazcLyAvzs4khT2MpySrVggGOkhVy3mldefdN8hvLMfDn8vqu8PDw/mu+/K7vdzGq/PFuF7/BA==);lineShape=1;" vertex="1" parent="1">
          <mxGeometry x="449.02821352757996" y="288.7905982251991" width="3.2320261805229826" height="2.6133020989144184" as="geometry" />
        </mxCell>
        <mxCell id="r5jIDg_zJhUNZUnPyhJ6-13" value="" style="shape=stencil(7VnbThwxDP2afbWS2Lk90/Y/kFjKqpRFC739fZ2uMkycnQM8VuJtGeyJb+fYzuz46unu+nG/C+7p+XT8tv91uHm+2/GnXQiHh7v96fCsv3b8ecdXt8fT/uvp+OPh5vz343WTbL++H3+2N/w+63mS2pSC+3N+IEwx/3vy5Sx/f3hYyRcqZZQPlOu2vM9U86igR/pthSCUw6jgKACLOJCkQYELVXCCvi/LqJDhCaLvG03iSBK2FWIi4VEBRzVpEP2o4KkAH1KmNPoQKlXeVsie/GiSptKBxGUhNgpCCZiUmfKYh+AoRmhSGmvPJ3LAh1QojbXkHRWkEHtMuoImGkU1kh9d0EQKkNdajYN8pIzsERIDBlipKs/RyDtQd01+RCeTx++Poz2BAva3jmXqO/a24snj+zVfyP4pX44Y2ZMoJiPvkD2a/mDlHZQv1n6P3l9sfhUByF8lFoMAcoAmFDEmv0IFIYz78V2+kAf25GTr3wcIgFzJGwdyh8Tl9hE6+S8Vx5SQQqRkWKVSAhgrxbKKknUCSa6+u7jqUChrlacemIkBzKqWtRtpQvkemZQpjibFDImllt6EF+JSJKMTaufyRUFzD/Lg3QKVhUu1utARheIYpqJoBh2nqgWj10Xpt8BE+JEeNZcFmKS1Yfi6BQ6coApuBJAGLgJAlGwRpAoV1XeiECcFwDEKCMMBzSSkIB1gK6dhlMSOClqPGc2EEyBqwiax5XmFCGOTggnrYuSWQjFOa7EgH2JnlUUhUASg1sQZbq24eWppyHQCI5PK5HSgAgCkCjasjNm4Ek9hLShxtcdklWmPElftBKC1hFp682GqVjRjtCiN1Kd4YFQa2e4LqgCdTn2MfRk78dwwNy09IiOvxQ4aqoCm8waIYsPk0Qkz5FLfzN4K6tiXlE3aMIAQ2CAaMU3lClP9boVso9QKGPVRZ8u1nYlmgdBLZ9XkPOpZ03qbF0LfGh5k9CE7PM9oLY1tVMd2tAW0eWZ0OtY+sGw5LWbtibBaNaxm2pDaV+o3Up8I5spoJyYufR3dHERHH3RFR7N9nogpZDgKaF7NCbpdIYjm0CtnNUwHENZU7eTqGV5ktP3HAKgvIB/78O5jH/7f9mEFgL1BoooRZi6QEryLVAibHqj7MBpslSTsPlxfY5Vg7vEiHDuz9O1gKWkH9+GZVRiPnS1p46LHyyhwWYFtl+Vl/tm6Hq3TBSzCjXYLa1LtTHBZwVvi0icIyRoT0zQlwPvUsHS8dYcCPvhCPGJNNNOoadrlVjIctX3f0RZ5XV6By95ykRRIpt7u/7KwwUV5Z2dglUf3x9PoJUu32pC3KU5wl3f9bnklH0DCpvsOzVcG8VmodiXvQX5dv4peFVCC8macEHnFftOLhWFz9b01ruQTiOd7vxy9Lq8/Xj5T3R7u789fudb/t5+19NH5kxh//gs=);lineShape=1;" vertex="1" parent="1">
          <mxGeometry x="456.7525825988421" y="286.4083846056246" width="6.855473005249195" height="4.980164884061457" as="geometry" />
        </mxCell>
        <mxCell id="r5jIDg_zJhUNZUnPyhJ6-14" value="" style="shape=stencil(7Vrbbhw3DP2afSVEUdfnJP2PAHHqRV07cNzb35fqRopEzRw3QF5a5G295hmJ90POXuTN5/v3n+4u3n1+eX765e6P64eX+4u8vXh/fby/e76+6KeLvLvIm49Pz3c/Pz/99vjh9ven902yffr16ff2hD9vOPaUpKG8++vLN5W4/vPNTzfAw/VxBjCFsgCEKTEAOGK3AEIgDucAPT8u8tFTlHP5QpwW+cRU47l8tvKZ+w0P5ZO9Ty4Uy7l8pLDKF6GczuUD1dU+JUEPhP60ST4DBwSKvMqrBTKS52LlI7i/arfJF+AvIRErX4G+norRt5DzSD647fkoQKlu90/AvyPcJ3kB8cybvumV+3zJjkk+QHln7BOpAP+qfLXyAvzltnjgXjNO5N1q/xzJg/uo/KpvSlRA/jqS9T4x9xue2XO1f8jdYifxY/SVDPNRKPhFvlUkmF8m31UjD/ybbMFlzTgQb1s91HIFylulasxDAViHt3Rhiij6tVyt4Tbi41i+2PB3sPro8abcCqzmql4y5bzHx7F8tu7SlhmBe7Ud+q2jCqqfeqPVYXqmAwEhxWaYRGJQEcOW8kF6UzsGCKW85pjGKDpBS87qtRgpIUDtPXrKygDMGpmK0WEUjmOA9K4yrOTJAaVj6v8efgjkQShFDdW1E3AmD05Izp7Qsgmlvu+Z/jWXUanTyunXG2krRs+vW21hGElZTbgGBqdOL44BwXbjxhcQO9PmuKqsbhMEqBRNJKlRgQ7FWy9obGUECCSr0sowkRu0YYtpaRVy5MZQTFFKPaGOAVpSDMnxPT+Oq7yzntYzAzBr3WiUfhPRCbkn/ACE3omOAaXTmgmACmWtNt8UgKykADPc1AibiQJM8FXtvvgEU2TUDAJCQwF5jSU1g6D2rJ42Zq3k0Amls9cJkJDSgx5PgIoBZqJrAFC71YiGArcrIUA80AF1dQV4v5kV5LQCTA9VrRDLboA9NLAOpgi04EMJFO2g08Ib+SHZyldHpTpznL3SqynK2wkeA0yXroNvnYW3qUvNbjgfrJUSJHDstoFE7eCQmWqfn6ZgQpxVAdFZACxM5SDlAoqNMVJMAFjvs+1Zkx2+F4J7Akxqo9mhlM1OAa4KtJEW07UK3gVFW4+L4BP0AmvhyEqZgNL6POOJ7CihVr3N88rqPHBdLpTXahk9ZInKFUxfVP6OeGgWWwdEYDSpinH1g8eNNO3UWLsW8EOS3vqnKTeBKykFs4ACmWisNlpVB0Q3YrZKCzarjjyGrSsT9WhTGHonH4AKM04DQdbwbmMWGuSKHQjSeMQxINhWncbweAwYrHBax6B1ko5tcaPfaEiRbQLXS6IFVxuozeSX4ajYRva1CPgKVzJ+47ptiwhOaEvVFcCxr02PAW5bszDem4wl8DBrr2zH8mJ5Zepl51/u/dlhHmq3GozJerH8qpkAFQC7x9EnoMEy9gY7BQVMnW2szJBciR3hWh4Ah4ndi7W1J5APB2tVRInH7mJa26KY/k+8hgD++vEa4v/9GoL7iDltPNDQ6fsMO/Kl4K2qjf/G61Af69E1NUq0Z499xzSxOrSOTJ3oTqQO1ats6792NZS/xfZt5U/4tUJ2Vh4uweyIwxnP/NvaPPdvzvqL6aipe/BkDrRkSwEwwcaLhxmATuBtvZvg5kUBpiYyXvvx2GxORkIDPPvOWCcAenuhgLCFBRqW2w8IvAWgzf+3/+LgdYB++PoDh4/Xh4fb7yPm/9sfROhXtx9TyLu/AQ==);lineShape=1;" vertex="1" parent="1">
          <mxGeometry x="466.8640930769425" y="284.132019592424" width="6.2840067473182915" height="5.3926432629465095" as="geometry" />
        </mxCell>
        <mxCell id="r5jIDg_zJhUNZUnPyhJ6-15" value="" style="shape=stencil(lZzJch3HEUW/BtuOmoe1LP+HIkSZDNOkgqI8/L2zDNfD65vo08EdBVWiK+ebQ+El//THx19+//CSwh/fv339+4d/ffr1+8eX/JeXlD59+fjh26fv9q+X/PNL/um3r98+/O3b1z+//Pr637//sk6uf/3j6z/Xb/j3K12MRx2LKoX/vP6kHbP87wd/fT3/+dOX5/PhSP10vh6zXp+fRwhyvITr4/1oSW4TxvXxdqR6Oj6OAJexb5fT8Xl04LUc9XwZExbJJh/t/Ouj/YZ+fT4dQ35/38q4OB/b6XwKx5igq6OfZW8cJbhPPMpZmqaO/0vg6vz5/jkcFcQftzQe5/MRI52fZ3nmivdPRzmbcm7HaKSvIefHkUCe9ehy/35MuE8/QtLzCexnHKXp/SP61pTz5WhgP9ErLG0RvE+Qjh5VwyMDgYn0rDJjqoG/m4f0sw7MpzN9oaqSzagDETTVwvIL8hq7wDy75UQ3NoIqBH0HmiuCdlaccYVMNw2LJuhMYm1HyRq6KO4aQTzHihueq7JgrsBqi+cLNRaRGdLZ1wpLKB1VYsWR2BVClfOFQlfYRvaWxwLIZx4tCrsTIt1UL5gcGMPOWw/1hjtHHmd27Scoz6KpcsUCNtEclWAQD8OZqMVv8EtLdl14iBiMLB/M8SNSWjqdogbCB0upZxYGc/D4329OkyG/rgCvVlTgfI5HOjslYzOL/s5KKd9YuhbAYvkMgkp2wX0wfqpHlbgYN+R5n6DtfPoUFwdJqG3A9CCw0Ap+bBm7+GRAPA8NFGaGFCmMoJ6VsBIaWKkRzO6+QExPxRXmShReSjiaeNpAwyjmuVHFOkFxpWi4jg2hbGlqSutKhN2nBnhjmjJCjUceKlaK2dVjnYpMV5eUzcETlSvDwa+ETLewjfkZEUKIbEmxjnkIQfiWNSSZhwy6kiV+udLAoqJ1LTAXAYi1mRDdlagK7GGnvqe6osOVetQgYGINwHRPTg9p18HvE2Tn0xOl1KtGPovdHay1tx22HgQZxdr7Bu7PDkQEQzsJNz7d58awT9G70RfmBu5PCZ2qCyMQBNAxIdr5oQl0UIFnME0qSGbA6stzAm2YTEwHknDHrn6uzksuidwhMAJBDEsFZHdd3XkBPxJpV5YtcFPAMALtQgSMw0uoQpCxjDetSYSxirABwQgb+j7xQMBwRIdtO/r/sPDgKsIEejCC5n0HpDSKgoCFrcC2R1Mp2RciXam59lfdYrgimEHFSvh5dI30lqKpYWYEEodXR4sUN5xDcx1pBBKS8qOWe59gamFl0IYg6/SVJ+NDIxAU3SLyYATz7EBtYJ9txn2BR1gtWOvNoLB7uRRo2gjEgcajQXElVulHrF9B/jDUpyeXDsuW5AttR9sr8y7SUjHzJo8rCgLmxJp7ZAUyMQSOM1FbmPaJSJ8IChtmx8ZBn9rknQU7Pd2VM6a5TknRae7GNoxA+rwj3MEA8VGDW5nCRtDgaqCUcLfpQYBGK1jpmqpFrHVi0TeqKs7CBmV2s28JG1YRBbqSafqshzJ2CXUVNrL09BoT5I2yHwQVcbeZmjBthWYCPcwH8H8Q5KMD02b9tSoB9WTmo5P3REApyAiKIyBbMgJJckZAYw8j0N5q2WnvikBgdOHB1iKYSjAp3rtOl2k6M4EEASMgSLbEOpTg5koCBcxaqWti0V3FektQ/ZVIrGNHoWem+QuC1pdYyTSGdkCX4mgENZx5lx0WrghSVgLqaaykKUxnbPsagYw9C9c0punwoy6aPQHbkkyIVphhBxpOrBSMlwNVJcAByxtSeKIYpOqp49jC49jFRFCCm0hWnblO1lxyPhpIEcNFsoZFzY8TtHekRCW4pSDVQ+NonJ19NyxfZ9rN2wdB51gZXAqa2CsyMC3t3Jow9Blik9BXK3ZCDBtLvK+32FgiWStMEHW81AO2EQ30iXkbSsRqNGjYsG8GklLQJp+hOhqgLLQuCy7hiFRRxz3AeaqCsAR3IyNDRATJRtE2ghHQEM5YlD68EVCCWLYklVzdnYhLpDuUaUKJwy1mrKKcsPTcUn9WHGn6US48F8j8BR3FFQR9w6FEK/JpI2BMbau1uMVwJaV2ZtoqDurDjaEjGotLWHF0h38CEzQVa+am96gKXNO9tUrzMSFgMn8YrulFoG8Ut/tR+EpFxRpvGhXZLbwMrGlWEJDhQ+D6OCrTa5eNQ+U8M524LusO/6xhPrXKh3ZCEufp7iq/tQ9GV2qKZlK5G9EEN6IhKfWq5p0iDhSNQBbAlvGBpvujXHiyJeol9upsKWPFsXKmtJkDdsmMQFonfSfuK6lmnenQ0sWacJy1kHfb4sqQBGhEXgqcGsQiZ9zg9gNwDGe+FpPcn8olO+/kQ61Zf37wHME1i03Bk31ft0C4N7amdhLwOg6xV8tRHC1iPvdzOHNlUlp3C3vLStlvBHKvTUu6UtFl4JXaqDGblOlc+QtRR0y585g86DAx836DIRBxZcvn1PVpXVvqhW2pVW0u3xEU19QMuBjYsnO3ifHLUJR8YW0R09rIdGvHN3sm3RFkBABWexUhCLhIbNXdkMTTsXyrQYOGORBh9OKiqoW9TDtLPnkG/oIfiE5MJCXr9NEIGhFEt3cVcdiybFMQQ0YQU9yYzMRKCwt5bMjypDianZhtquJudhCbDkQX6gGfzi4/J940XWFLEmLgNcSq/Y+1n01rhcXBpIINE/MvGSPcrNdm151YqIeW/pJ2owf2NNdLjC7nqaW5NtH0aQyVxP6hTgyI8wxVNIEBEXdl1npSUJlS8yNFt5pSsFW3ljiEB64ZYnPz1oqdt1gc9qm7EnqfIOljhcjvpWLQBk5kZDLUedZWB8EGh60iGlLXrsHETNL3buwbmKdnBF2Tbbu5vMRTDqdu7MtYIbr3Ujx8N0lL3ykgYotuhJtwXLrMUysXtM7u3+bh8zDXN+M9y+hWoQfLc7hiM2I3Pw73QC8zB27X+u050eWVxIEZx6+t5POV1q41KdmvKCV0sNh1VcwSLD69cYtcidNfrI5gYvfShzlLV5QMLMxJMlh7yqTpqGPGhTPw/Y248loixnenP7bG5Z5LrZ15Wnh30+eAjZfkBugBIXzU9fhVhQC/QV+urNoOjCho4ZU58wXXRMn49NENIxeAAfm4pbjU0eJcmrTYSGAiaKhbHU7ye3X7tftMXuw2mfPNU2F9YhiwkZ3V3gYXEuouFUNK1cKmYPu3uzYlj9dddxld12KDS3sY3twIq9yd11k8PhlaMFWfLmJ8drVARVdZgE2VhU81sz695KH6uo/spmEX5w2Wv53HBJa0PdH4PW5y+6wMI9Lu7z7BFP79DoNi2RD9Kzh64PXDf2Hh9rz94+3POfz26fPn178G8fz/9c8/2I9e/3RE/vm/);lineShape=1;" vertex="1" parent="1">
          <mxGeometry x="474.3522914528063" y="285.60228778303895" width="15.89723573846697" height="11.722049666045642" as="geometry" />
        </mxCell>
        <mxCell id="r5jIDg_zJhUNZUnPyhJ6-16" value="" style="shape=stencil(lVjbUlsxDPyavGpsy9dn2v4HM0DJlAID9Pb3XTd1GsvnbIe3ELSxpV3dfNCr1/vr59tDcK9vL09fbn8cb97uD/rhEMLx8f725fiGTwf9eNCru6eX288vT98eb05/P193y/7p69P3/gs/TzifxGlHBffr7zde1P355tMJ8HB8vAR4CXUCBHwT9gFNXJjsNYimffsi1U/20UnM+/ZZkrFvUokDSYqb7FOT3Jh9nu1zk0h+P4/wDftSaUCrhNm+JmnEXxBgHG5+XHEbkMXlGRCl+X0ACM1xBuBK5AT4UJ0FaN0HaLWqayqenBCrpBlQcSZRHUjV2ekaqNNgNc06LYmGFbSm+YRcxpnbRCOIbVZeHYHezhwvbgZA2k0JQKWVGeApDxBCnJlWlchP8PMJXe8krM1JmYkLjjJdi8T5BB9pPlSVMhckjzMLIQ71YSaujIzatldJc5CiJBJUyMDEKA9a9qRa599HildSIVOyUkUV9yREyUmdheQrFVJcpBrOxG8D3LjxGYCgEoAmWzLQFhxxWtFl5rKnWQqhTZ2oaTzIT3IldCqfLaCyOol/qwU00koghFiXExggSViulEjZgzRNd0aUGgOo5GwBnvAAQJyZBpWB+YATzJXOVWfPBzVhxU8w4tLCtIojGdpnBuNDkMKiVEb/uwCw0g0thWXqqSTjulqr9SGwFop8WEp34wlkKjF4KKRqAGBTFB2R+eAlGqczHd3gdDY8FFpmENZULIANb326WjKOdZNeq9ecZvmQNnygao0bPnimJR2TzmVYeU6bFgriWMcCwIwyXRqs8kVx5gTlI+W7AVWKaSiVlkpdykyvhSSsusxvvkkhJ0S1wxLabiDSwNBqGor39Eop2N2HSykts1Kkk0zOYzAa9m70l+3JB8Jsxt6x2c3bhuj56JZs84l0z6jN7mKVFtU+rc4i8koToWVbVKEJxliri+oS7bfenUN4kQmJBKk123BjEM+8zraVJD943N0zZtllR9cGjNym4fadmAAwQjczciM3mFJxwkwEtEJnYm9XnxbGwLg3sZrcaUUcb+lmLAEzlWQnpBPnsF6Qv7fax2zvlAhzGNWCdZou6nYEqHns1Zv2WKRmFkAb43nRNnTBhOTsywR2oUTu72wnxEIcWfu3zwxg3ZPs1NGIz7mJikbun6xKcUMl8ax28/Q80drCLy0uzY61jbYDHO7NSxKtE32vngtLpaNRf6kKxp6Vax/GInFhz2qpWnpxH5LBsC+Lv+ylLdr78CoHe5Nejaqnv73aAkHl09f8BUAj9O7X3f8D8OHfY/Ld8eHh9BZ9+X/7+IyvTg/X+vE3);lineShape=1;" vertex="1" parent="1">
          <mxGeometry x="491.43402372835556" y="286.4159879948993" width="3.538604234659068" height="5.526672191016439" as="geometry" />
        </mxCell>
        <mxCell id="r5jIDg_zJhUNZUnPyhJ6-17" value="" style="shape=stencil(7VrLchs3EPwaXlF4P86O8x+ushypokguWUnsv08jLCyJxm4zvOXgm0yjF4PBPHp69xQ+fHv89PXh5O2397fX3x/+fvr8/ngKv5y8f3p5fHh7esdfp/DxFD58eX17+O3t9c+Xz+d/f/3UV/a//nj9qz/h+xmXo6m1o7z9cf6lBJPKv7/8egY8P71cA5wJbgLkZmo4BqRqcpsBxWQFSCYRII099wHeWDLJm2aPAbGYRgBrkgIEE9MEwKm88FLAoWe3pmyCF4BgSpwB0ZR2DPDVFDIpmJoEIIznXQGKcKtrxi0mJXEGF02LfGivAIilMAOasSI0KluEi65ZRIaJ8/MReimKWzCxzMmA54tr9iZQ8lT5fG/SvL4G06qyp85XVutw8X5yGjevb2H8sru+mTTnQcvGCn+6YPIcdK2MZN0HIA8yA6rINB+Nj2xSVi6yw+INEE1Qd5wWk6xpIuiiHTG23QJMEokTE4dFdSYqAG6V4i6NcrAf146TH0VY5TJSnepR3mJ9H7D0hVSMFfeAqp39DNA1FYA274AqW0W1QDGxc3SHYpzK/sRlHsGSNSDNN41wVBcHgJ3PgIBPykt43nwGpFQQCXQp6lssyYqE9W4+c5KNCr0zzNfmZYVB5FFzRigql7pREC/ro7rknefLsMP2s/12pMbR+hZovcwDb7yj9V75ByU+0Xppv+cYxXqVNcH4dt/6fJc9aEj8fHneOMLrP/oTCVBPd9xX5LKCeNDxT/ZrktPzi1q4ccqerUZt9njj9IGd5RIh6W/kUu01i+pVazYpwMkqJjIz8niDRoF3UW1341T7gDaKwhVfLnqqSLOXwPnVGdC+PN0bAkN4CYPO2mOzMimzSaXJUg1uSaFXUVzVGdr47w0QRwPaBRTLfA1MJIps7vSVTGoyWjvvIEaI/FQ7NHZrcyO69im8Z+oCQBUZWhee0HcQXsIRqWQ03XNAktkkK2k5OCwBsGdTPLvy0NwByqSty1+ZpMK7IZYWVuvVGZCigQEqHwBoy8U50Rpa43y4cXEAENdpXhI8AIhcAKDGEQCoGLet/x7dQ6J7CIOFHgGsZYAqlYilmBeTlFsLqx0AZAXI3FDaRmqOANRQ2sayDgGRAV4dOrPa0cuM2qEsF2elntLn0soAq7yEHjfnw+0UzUttbTqB/FJbnU5RLmRoAII69IxbvKQKmbN2CVc3JpTDLcgmLwloP8QS31EntV8Aai5sixLWc1RwuPsBkUl31xgEoK5dMcnoQx/3gQGK/6CNpgWgaCUatavLDops5CVcN01gH7BoDHBrE14CnbF0BqcJUzGZCFMxVelhmQf6qoWVzjqpswdtUmRqXHVSZ88DGRwdFA+1nHFgulmNKEuTw6mUwJUKsxM8wouM29F63K2pj4TbGPTUtBBXzDSqyfW5nqSbrKUbdKj5HjCXSSXDDuHyevJT0o0dCXkZLZW4+lNa+Smt/K+llcTSoh8OO6wSc0rGkdRHsgRJ/1WSeawn6cbdKCqFHYSUlxlTlqISZTdIldXUrjhrQFw1bXXoOjSIq0oqBdvK40LSVBuHJv6ViiQKXZenfhNvanQkxVipe6Cy2KVnqnedcTlDlx2EW6Pn0KhVJieuiYmzl9U6uIXs5DGy7wIQasxSq3zR7urSD6yuYG7VYpomkYsqUeREH/neQCFVdDuu8CDSquTZIQ9cCWiKyC/TTqlSYHDMmYsWe5cOchER97kdd8Cug6rJfJFVy3iDvm9/WN7IR8lOuzY93/DlBdF+lAZ+OdqpoPoMoXGVB0C9TQXxo7BOWuQJjXlLP7SqFsi0OSxQ0px6I7yIbb0s64pHO4DVKz28l9z5HrrgrQYXu+yQhsB3JKAHeoVc9eCyVDzMIXL4Kvw1Qs8ePd5R9wTghuJO9wCAetuzs0PQbw3K0LGuAOpbpB0v3fieKnMNBkAp7gDEyAAlVAFAvK1E2RZ65JQ7AXealFhsu3Xouz9Tuw3AH5ev4r48PT+fP6q7/n/+ig4/nb/ACx//AQ==);lineShape=1;" vertex="1" parent="1">
          <mxGeometry x="496.4100287208198" y="281.6042036702572" width="8.048596313446344" height="8.80664052866281" as="geometry" />
        </mxCell>
        <mxCell id="r5jIDg_zJhUNZUnPyhJ6-18" value="" style="shape=stencil(7VrLbhw3EPyavRJsNp9nx/4PA5ajRRTJkGUn+fs0s+BoWZypjYAcDDg3aZe1Q/ajuro5J3339f7jl7tT8F9fnp9+u/vj/Onl/qS/nEI4P97fPZ9f7K+Tvj/pu89Pz3e/Pj99e/x0+f/Lx76y//X70/f+C39ecNGpdlDwf10+CN759s8nHy7rH86P0/oU5/XVRX+8Prky/74WV8j64rxM66M9keynulyn9Unp/sW7Mj8gBxcYILiWJ0ARlzIBJJf8BKh+fLIPKK62GVCdZ09orpQJ0NSlcgwI4nQ+dMuuMUBwMrut8S0ZIAgCYuRPSAioQs/QANCcsC2JyxEBkVspKAJKIACLpeUJjXjaADJ7WrylG4uN5rK+FeHbsiliWKkjwa6PTVxnACkIuBXgq+tYzpXFdRYcbEvZ5TlJLSOE+NqSNM5bqmVE8D5A0delOWVbEszqYjSQKDPJfIZsEUzMatQ3HyEFSpUFSSDq8Mvu+ozrNdEMtW9n3us7JPvJzkPpCU7pfursAQsTT9ZXF2b7CLePOSCFOSZGcTkKCSD6LaiOolrniAicLbbCtB1gFMf99ZZmc156ul7VNcX1ZD/RI8fbfkgGxOzCbE8dHtmPH3FxPq9FIJMWGZnOPBhIRUgNDSRxxOx+xAXkoc7H5Mg5ujDLERNMmfjAAEBcwYoUCbqseAaNzpMi1eUNeKG4Rs5gVmqzWaNQhZTKSNsrYmnM0Wal+Qwx0RKV/Ph6AxQaGiYaITQi1y9aly1FV5gODsuWLHyJH/qOIwJYaBibZ3iC8ZcSgNVIxTMwhZQTamFL2UgARZGRYuPq3C8UaXWZBF/N2C+kQkmsmRHn8M6ehndL6AczA0ugrnyhY2ijcu0DGvZIZjcGuJJ0GyKPJDx6BKjnbmlCG604mYmpbkSyD1Bse7pryBNqG8G5AbjIq3GRkZ4eulQMphYG3e4DlgzqqpCRa8YMMkBhkkRG37UBIm0/rWbVBSCMK5fQsC1VcgYjCa1oVsqVwXkIDZ7UBpA5vq1frYQ2Om8tAKbOo6J0M3XOuLITXUVAIClnBWd9gmdbykgbBmCOW/neAEweWoVCs5aRg0cA0A5mVtYwxIoK2jytzEr2e0uKsjLaz5ARUJjjzEoAkKFXDv1QEMCqYvd0RcCNWMJRhtCq2KN12ZLnKZoSWimxQ68Z12g/vJvTwkkAzGqxpDf0z5JxrD68NptXABp8cRmLFX6GhMK15zQ7Q8EO9NaWymjYrg/NWKMuLWUd9PzfANLWg12zN++a6pKiTJ1YjfMrgFXRtIQGj9YiKCs7L5F8MHUEhd2sFJnWWOp09zRTM3YG8EOmKtF2HAEQ6RlMu6Djwhi4HCkySKDS6PzGlAV4uvCSZQCccSnNadsSVKDiBxceqXWwkkkuOuOqKHStn63M04r9QOJzurLMGlOiAquP8eZotU6NikQdU4kN4Lnm22xy1b2y3tJ+Dwp7vCF/ItbpPqxhRTGjDO18zoTuMkzrFYN1r2mkyzanaJRbrTFMMJ/MVC9ZIEBhV6XBZ52kn1kjtBFdhwMmGIEm2qFYyw6hETydSJmVIDQkU1VpsQmOk0AvZnqNA/nDJZ+uU7vEpo51JMsWGPRC0HwEl12ck8ImdF7XM5/1x+N+WNvaL33m/dyc+sZZZBQ6pJS4XMdQljd34phbae6LH1P5qzk6rVQYEMEiiBWq4c9tfaW3k31qC3fEiQ4zRJZhHb//NBtBnUp8cmBOCDAkkvHJPiCj4LYywQZdUlFVlUoJVdqiqjK9pguyMy4p/A73/0vf8INc+sa3In7CS9+yDBsKvXCUTcL/y+Gb0YAsfQZTDMZMwK2VzzTNJPOOrBdi6615m9f3KyrWT2JxS0ozVNFCphTZNF3wDvrG5ZLHq6L++hBJz2X6Gbh09uNGeMucRglmKT3Cr988ak5bzybKHmcYlkfcnmAfW89EsGCLJ/zOehkO31y/7p/1Orqzf8ZDivHZ7ckaF6ya0vit2yKOOM29/XW4W+vtj9d37z6fHx4ur+5df4/v6tlHl/f89P3f);lineShape=1;" vertex="1" parent="1">
          <mxGeometry x="504.39808361958353" y="282.2091358469084" width="5.066049410684983" height="7.550173062261594" as="geometry" />
        </mxCell>
        <mxCell id="r5jIDg_zJhUNZUnPyhJ6-19" value="" style="shape=stencil(lVfLbhsxDPyavRKiRL3OafofAeLURl07cNw2+ftS3a5tUd4pctsoHJmPGZKawsPb9ul1M3n3dj4dv29+757P2yl8mbzfHbab0+6sX1N4nMLDy/G0+XY6/jw8z3+/PjXL9vXj+Kvd8D7jaqEcG8q7j/nEE4e/B19n+/3ucGOfM0nu7AsFXrdPjqS/nyNJXQdIpVp6h9xychcQCsXaAzLFuA5Qj00IIZIDMbO61AMkEAOXOFB2HSAySVoH1MG+UgIhaM77kFOG9xcbQBbKKGJHWfoqMwUPI+a+zKWQAx5xJte7VAMVkFOvDvS8UOomBwFSLeBfGtYAnHpAhUErMSVYQMJECtkCCspSIXYWgMTAycq5AYDcmhqHoFEdWO7EkEBalRqxDGnFAK4W4DD5vKmDUgOlddCnAiC9ZekoNwDYMiIlE0OmIlgPzgIyaAFKjRAHACpctX1SARXEoPS2AKUjFpAfsoR6vQLiUIeCWvelC91Qw4PxozFktoCIJZoHPWQkIB0/YgEVFS6T74Nm55bir5GpDApClVO6Wn5XTCbtvQNA8ITzQxdgxO/PAsoil4u9kAceCZWeGTqAkL23I1QnHIp4EEMbodDe6FlHdEA9ycpZV4AASqZ9uye2rhgOKIF5ofFlifEUgUNtuvUZDVoBULHghlUyUQT9Qh3gntdt0wJCiH6h/QUgi5jub6tuWXMuVaAEQqhMpc+qJgHcX/0y+q72qB3pjmPGglvWoPv2YnWJO0WNVMXaI3906gz2gNTXqXcTL2hErZ3b/AjKf7UDwS2dbM3edEaHtx03yFJnFgC0HxBjH7G9EQ3Dbeqzz6//2+vH9a33stvv56fi7f/t21CP5ndlePwD);lineShape=1;" vertex="1" parent="1">
          <mxGeometry x="512.3400569435337" y="278.2858598207933" width="2.323886610710142" height="8.614314690352852" as="geometry" />
        </mxCell>
        <mxCell id="r5jIDg_zJhUNZUnPyhJ6-20" value="" style="shape=stencil(7VvLchw3DPwaXVkkwAd4dpz/cJXlWBXHcsnO6+8DWsXRsLnbm+SUVOmmONM7BNEAGiDnTt98/fjuy/2dxK/fnh5/vv/94f23j3f6w53Iw+eP908P3/yvO317p28+PD7d//T0+Ovn98///eXdeHL89cvjb+MX/njGtVDSAEn88/kfNJh8/4cfnx//9PD59HgJtSyPpxpyvf58DhqX58VCitef11DyupwSer/+vIQmy/O5hJjZ87Etz5ccIvn9hPZWCZn8vj+v6/N9WnTl+b4+30pIytZf1vW0Pi26sv9l3R9LwYi/WrB1/y2GSvyVYogrf5oFJQtKErRvFpMVpRxspVCLoRsBtMmwwwfOIcLp5FtYV0AMuRAn+J6sAGdRZSx1N6+7lP2dZFsHr9ddyhoa44UGtTVw/A0cAG9QzowRmqsN0m8tCWLZY78zozXUDZASBQA1nL+ZvSEjW6UGYzbkIA0BmXBpBFxBgDAbMkacAxLjkoeLIIBFnAOAGg5oLEd6kk+4rcKX1AwBnS/JVvK5pxuLuIJ50slXSBIYRq8AzbyQlBkupwAqnEuQBLz0sFQ5uARZQ3kS0NAhL6UgjHw689yp+rBqNZa0kq+1EJkfMjrOPMq5pyHNmHHyeUCuEdcTVSQjC61s7b4k4mnPc1CBulDyqc6SfAAiza2DaivACk0zWueKT2W3kGSsHl+gA3LIxA9qWIFqo0XR2S9rTDv5lDjOAVB2S5nZ9tqSyvqGbDOfXzMaPJ3daPaGigUlJ6qu3HFgtL9TGDVk7voZwByXkEtjSWxb47ZLlUacL6llBGQWD57INg1NPe0mrp52caKsCYjz9w5AnInnMmCr0+7KSNJ9bpgqfaOF7FIR1HyjxDBAmaLzAMRghHylzwg+tUosHryzqCuXXCsz+eOyVlfHdeoGj3jQJjalxOXnj+Lx8vtsT12XQ3FIOuPpMiCFthLJpbgSi5tg9Ax1xdoZmXrw4IVSrzkAw+1Gw7Qr9T6zzmXAUfSPPFmplHEAFGnPxJXZoNgUV96eDAC8odBq4oC6Gl0rDWgHwLY6oJPE6oAMNjSa9sYuQYGzGeLXHNcbApTtkiBbHcB6+0E+3QCkwA16b0u6EUA94y4ZsyFNpXMCKPNDmpr25LjKlwQTh9F9811KW/fNRhojgFYulUQFXzta51NFbOwN29Qky2wnLgPK9OuRZoy/wVXu6gcvcEzKNAvZECCESxa3fsaoDLCE7UkWmgRMgsC2Nr4knb3F4TihzbRtealw0WoZuz4vqowaQ5dvbzASD1Zx5DCaOEJva7PenFQumzh6f4QA3s9Yn1Q7da4sRL2hAikzJCCxoefQQF0d+3YZULfeOM3p0WWAzU087RKrcb2jQnSBxiLOAaByvYo2Uh8cgB1TpTakGLGye24TQle3uqye8yBkMdqPedgBkKkBLwMa1l0HMCngAEgbdoycr7m6KNrQmecqajhPVZRMZQqw08ybnTk4AOjaGl/SlgU8P7Oq6DZEGGJnWuQcAOnbixKbCDgA1IkDWJ84PL3yewgcBjDMxkNCsW019LQbzYZFDrBt1C/M6G2E4H6gbO1zTw6AcRv6FqJ96vdrNoDoc3qzpskBMDH2AGL53h0HbB0hymNatiRQOVtBrdshNK8BpKDRTN73bTzr28rkfd8mxkPgMGqU7RSo0r6sH+eGJ/Ipq4oVhxROb3Yw9W8AML/yjvmW47a+jMn7fqStU5Gj2bsgvUvhS8ooNrzdzWxbFd+QM484wQrkADaOcjmTVqNdh1JqRGyoX6ZB1xSWgtio9AjSNVwG7SB0YuwqEc7K6lFXr+lQPAiOtBl1pRu3gsJGai6+Yfoz1Ax7w95bFipORibdOj+W7sdQfBN9dJrTNy61ScfLgDaVxUl8G2/k4jb+YfHgWShvp0DGAHkemh4A4294Hf98B7yOf/4X45+EhwlVqEh0AF7h4WeWYywN86JIJdyoyqsNt8Y/2/mGN9SsVWzbrRlpdPBdOzbUkujBlAMEZvGNHjY7EYAaSfnpwNaWOYAdo1bFKpoqNzriREoivYfgVRlCVAptB7zuw6xFI52EZMNR4hjDkSW5djHgUqInu+M4cDvvY6c6atskJNL2WLdjI69A9IBQ8HDNyy7LGuOQc6vT9H6UYQAV4dfg2sxCxy4VOnuU41baaUjG6oN0pLcqHVb6LkHTpJFGnP8eSGnhTdPuOD3IchlwXG462cCOmnRrXrXRWbx21K3O38qPgjPopcYvkKZtaJznHcurAQTiRGgS8CVB1hjpmQVQx0uerdF079sKYwrLVAm8JJUJ8J6FGa0ZpfTo7Bgg4dShdx5AHSdYp3nntRiFgHgZ2l4GFIzR0cTfuM4HF3MSv2ynqB2s8FuS+23VRqfG46YnsI9fAJaEecbLHrsFM94A2Vi45wQDYlybYTYIarhRY0jqe70aOgGvV0N3wH/uamidZP67bC0ojV/u610D4FHqjYubGZNrrlTey9Yfl0QPUcaHDwBodLAxpDa07JmmymRbB96pp1NBddIKLXLeX8DHJGMgxD9OAIXldZex1dBm401TwdGMGb8uuI36G+c25iTjwjtul20TTRgRe41W6Hq2A85xRYxksIj5qCaaUyMWHu9MmMDdBohZaRnZvrZx3cT3v24pnt69xOKfuM4rOKlLNBFtx5T86mhFb/HThooygTfbFUfcXDRvRxlcPG63wCP9bKzhlaDIx1pYuiOteg2TLZ+9bCexiV4paXgJQPjsCB9Xepb3D7/vu/m4//HyKeGHh0+fnr9EPP9//PTQ/+n5s0V9+xc=);lineShape=1;" vertex="1" parent="1">
          <mxGeometry x="516.2295920697559" y="282.486027092973" width="13.111179116933638" height="4.546002237494654" as="geometry" />
        </mxCell>
        <mxCell id="r5jIDg_zJhUNZUnPyhJ6-21" value="" style="shape=stencil(7VpLch03DDzN27JIAvytHecerrIcqaJILllJ7NsHzCuOhs15PdEuC+/0AWZAstFogHORD9/uP329u0T/7fXl+fe7vx8+v95f5JdLjA9P93cvD6/200U+XuTDl+eXu99env98+nz9/eunbtl/+uP5r/6E71c/cbV2p+h/jD/k9O8ffr2aPz48Tea5TeYhuRiYfcqTfUwuVfp8ncOJTiO1n5+v3gX/jvi1OKXx1DDZJ3WePF9dnOPJ3tXM7Kuf7ePJ82tE+6bMvszxZzmJJ0E89gQaT5jhk5NTYftZGtq3xuxFZvvshOAzuqpon0j8cTxtZ8/wFjBdzD4Q/AenGdebqX2IuP+NxGPoKmjP4vGuwP6Ii2R/gmvz/qTqIonH8DPHr9VpuW2f8bw0UPw3l2Y8GD80tp92wHMCWIgMcMZnYXYIxSWyAvt3nY84BCeEUuwMZF5zcZ5EZDkQ4QxG0h3bZ+cBE4PEju2r84ILyCyghiAN9gj2huYaVIFMlywLrCU5z2jacDrzluoI8thBXJgPIcUB3WOHhRlTo0wqeezJLvUTK61l4ermhHGvJfN8DsXog5G7ugzsXkY+HTsUF4GudYD30CF5TDerf6weJBn0sG0rLwjJ+BmywRZNttWOCdJH0yDBY0oKqCmkDRY8dpAhITYHHWXr2EGRhS0HGZYMOVCmeiFla0iDs3YpWgm88yJEjAQY0ZvukHnRgcO7b+v8hshppiunGXzGI8p2yWOKSqXFvDvMazDAN1atDGozVSYuH7uag3qeXWYOshQHpYLZTtrPaK1h8P+xg1Wb+Q018W01FprXUKsr5A0loMhunhbpYnsyo7VFSjPFQmrowEigRiSBFig0bE/QwdOQbE9CwV1iRGYBQH2ohYbUdHFItFdrBcV5lZHltxyg7JoDU6utIs1U3l60toRk8GZvaGOJu0WfOLQ5RWt2hZBxd5ixZAfn+RoqvMHgyB10wZIyaFRUMwYWVlDMISo6nJx0Wh0IvFtGldsTiIEvo3SwRWfCGi0t4DOxz3YpIWvYwQmDRhrUu4MGo3tzaMB8aUiuW4sWIGPli86ojC2BmNawg4MBSU9RFlLFgmIONB/qkg86uPAWvNOyS4FhqS0nnenBBe9HU7jjSrrqNgrOno15TKBODK4niwhLjrKeplVUuo3rn/c7pCXltvHbsYMVTXBIdLpiGRmAyfKg22OHpQnqVEUSwgp1gTe0MykA5LpDyy21EQO+guVcEeeXmNhRm2JqwK5l7PR/1GR2ckw89DYMqKxROjYhivJEKJWZNgaJVfjkLVmCwWjM5ARzWNSGPUJISOYAYlpPHDJOn60hYEndHebSbo0ZK+1pKyAb+hrVxn3RS5/ViL5PC8/kUetvtiiQDzSgLNiLet675jEvfHs+Y2LLBZhGNXphkLeivz1f6ZmZQ16OgPaVFgAcsgkDtuSKvNrHTWzNm+Lc4461WIoqV5XOEHtfCeMrPybrt2AEx5D4VLCPYWAyHkfze+wQcRpl28BoVRtmpzWODNqaUWhYb8zWoDImEptDoa2uGvbnXSqVbquUUc32b2AOihdKhes3iSi8DY70hiUsVyZhiMyb01nAkg7A3xoYQ/OgiQ41YsFmWjLtXOMiG+I2HD12UNRKged0jIilflPALooWaNgb2OgnWMRzPeyXO+yqJQ2O2BUfehcVl0ElL9HBIzT6RJjJt7EluyE55TEMKFUq3n7efv68/Zzt/1+3nx6VQldjBD8e8ZDO4gnL/Jlxih8j+c2ef+3gcSx08jWFx0nvydcaS/wnX4MsbTz/2MTjaDtSKbvsTqDksM3g3sx57BV1MqvbAUuep08Pg2fezBkRLt3cmXmWdwQjKC75UgU7Rb6RglqXH5Mg53MQvPt7phNz++Ht06kvD4+P1y+v9v/HT63sT9fPtOTjPw==);lineShape=1;" vertex="1" parent="1">
          <mxGeometry x="531.8331509333105" y="283.3958755827317" width="7.6076709367237685" height="4.0113318620372365" as="geometry" />
        </mxCell>
        <mxCell id="r5jIDg_zJhUNZUnPyhJ6-22" value="" style="shape=stencil(lVjbchsxCP0avzKSQBee0/Q/MhOn8TSNM07Sy98X1dV2hb2nkzd7DRaCw+GwO755fbx72e9SeH07Hb/ufxzu3x53/GmX0uH5cX86vNmnHd/u+ObheNp/OR3fn+/P31/uumX/9O34vf/Dz7NfYqq5e6Xw6/wkUyp/Hnw+2z8dnlf2USmEyT4yaQYOhXh2SIEEOTDlODtUqhU4BKoyOXChGLcd2vh12IvdWbftC4Uyp0hIQI6ESprsC1NiZB94sq8Rxi+jQot9hSWw2835aTyebORHZ0g0pdJAAcRXTNNAyXUHq8B8gkaq4ISUKM4g0kAZXKHXzN2hUQAg4kBlPqEJPIEzqc5VUFgFSZRnWFQrPChzXq644KiQgrSWMGC2ALVRA8Ar6kPKuDdbpDKHJBHShVaSNvdmJAYnaPOFM4cI6mAOhb1DAmlVpVi9Q0Z3UA8NTjgkpabeoQGCiSF4VmUepLZ1hM6VYxlRbl5iJg0DMIOGMAfHGh3xoEetENWFZNSP8tpGFlcOgk6oo07rE1Cp6wWYMjV0QrmSJUSV5iDs6yDYgR02bN7hkLI7IWFoFGrZOyCesSzxTN/WEIKgUakV7xAxNEQuHHDL+X6wkHBTy0VT/+2QzR6NPksFcGXvOMdkDLmyO7iQhBiHVC/AF3FIHksGb0QCbcyPVQNB+v6ogykLnsEnpsXApU3quCGXcceVROlCXSnIUk5DPS5zN0G0mhp04KsKuZVtBM1YamXMmOsOPNC/0j8ZwLtL1hl8mseZ1x1M4TnB1IYq3ZJkju5XQ2lLp4tTfVgA6WChVUiIvTNJ8HdGsjj5Md01IgBG8Axgiq+C+C9mdDWtAqZ68MOnBjhxwxhNC7AjHFaJxIm3BOOXQVdLa/JQ1RtrzxXCQ2Th6asvQqCToxVspq9Yx6Z13SFTnUehrX5I6llK3aaE1arZOy1pqyXIkP1dUGePFkmzdxBdMLK59vh4UEv2FsjOHglVYwmnwAKssNk7ARZI8f87IYyVtgHGbeZG9qBj+ibshjjOp3gaZbgf9c18bjGBWu2jL1P+b28f/r25eTg8PZ1f/Kx/92967NH5LRHf/gY=);lineShape=1;" vertex="1" parent="1">
          <mxGeometry x="538.847452845736" y="283.7262751758051" width="5.713300504138708" height="3.86907895252855" as="geometry" />
        </mxCell>
        <mxCell id="r5jIDg_zJhUNZUnPyhJ6-23" value="" style="shape=stencil(lVhJchpBEHwN14rel7Ms/0MRQoYwFgqEt987x6iH6WpIwW0YKrtrydpm5R/eN09v65Uz78fD/vv69/b5uFn5Lyvntq+b9WF7xNPKP678w8v+sP522P98fT79fnuaJKenH/tf0wl/TjibxfkJ5czfjzdiw/8XX0/yu+3rUj5KTZ18kJKJfBCTO/kquRJ5JyX0+nh+gZVYekAVYwnAiHcdwEUxxOQqrtfIW8nmunwZ5ItkolCWYnuPJjH0/NjLRy+ehcw08xogwQWFxiD0MU5ZjKOk+IhpA2TfaHUZUCX1rMhFClEJLPO90QW0IDcgakkBihhCPB+b02eiglnpOiAYST3xahBLbkBYlVtrorkWkw5czRLIDQkKZH1DIlRCmFLUNnji1lzFKy85Su6SxfZGF6QnuQFhcr0NeBMJNXBedRrgWD7bCwATCWCoYROA5MMU16gBlnAJca1eAwIDDEUJAFYm6+glhPJeQCHkm1TqbagoMwwwGA1AIVw6p8siRS2h9xS4pAGfUcMOAEbvegHAqDHSu8515MYEAoDV1pJad1oELjOV0kA+hJI1oKx7NKyiN1TdcgFgLWvy+pAPNNJogUPGsSmgRgnlrhty65m32jAn5I1eQgLlfE8crDG6Z30SalwRh5RjZJoA4R7ApHIfaiRhZvzGwKc6SpJIqnFGG1Upx6txqi2FZwDekOKK8aj2Ki08fblTuwtXVEK/ENswsjCisvEEbFJ+zXSI836oG5EOQJhDFf3Q2h3xq3ONnQuCJzaIojKpWSCII6HGIGp6umL+YCPWnMKLOTSQJgdq9udj0GXnw+K+BoAqgQTBtGxcjurk/CGfwZNK9MftvTxokphDxfcBwCqTWIibtvOqFKSS8/2wi5WWSrf5H8teZhNxm/nPyyRTP0tU7uRtSi9WqAOscrXB9yyeWSnV+WiadlfEVb6bNnlfW/KSPp7u8Qi8V/JsCUYqqo2NV8QpkFp/ukKGUZ61Y6ycScvTjTPpAQG5w/RJbdg9y9PaNheOszxbaO/+7vKpPB7OH3letrvd6RvR8n/9UQivTh+U/OM/);lineShape=1;" vertex="1" parent="1">
          <mxGeometry x="542.7896648910901" y="277.6032026399727" width="2.5075191628212457" height="10.321194945184239" as="geometry" />
        </mxCell>
        <mxCell id="r5jIDg_zJhUNZUnPyhJ6-24" value="" style="shape=stencil(lVfZctswDPwavWJIArye0/Q/MhOn9tSNM47T4+8LVaUiwuZm8qZjVwSBxYKa+O51//Cym4J7vZxP33e/Do+X/cRfphAOz/vd+XDRq4nvJ757Op13386nt+fH5f7lYUbOVz9OP+cv/F54gXKcScH9WR4UJnb/nnxd8MfD8wbvmYL0BE8ujQlBKHNHyJG8HxNYV6gdIRXKMiYIk/QhJU8CQopCrg8pBqpxTEjSctIIumYoY0JmSr4jcKAC0lrW7zVC8DTfjgg1EvdZ0j2DLdREoS+0IwZVqJl8NXgHNlAL+WDwERRN8VVM/AVktFaKqc/oR/ja1zgRo3wqvt+vBgg0pPhs4vcUUUJrq+dKYMqIUJqIV4LWnGHJYu4JWnRUs0QpXBHQCrFFvAlJ0B6k9dVm0wWtIO17m7QmVAch369QmxCHeOMuJEhHQrHXkZoH7ktvdf1fWCN8tX2ZcM1KNniH+7jYvgwZqi5ZX2HkK5W4Ny5uBRnhS5+fCPPv3eo7743pcOMX0zaubWlEkKvGdNi6zETz0ooyJMhnCEUb3ZjdKsPb8ybaeSNqd2CFlK5GYIb+GKM1l5Tb2L09laX58zr3tdOAsnWLua9DEWhfqpzcS7W6lrfR2SX3adXuQJW+GsobNd4OyQ6peayABbzV6txOQKvezhCVFsI728zzhoFbOHvOmY8ZEO9M/AxrfNXL1Tf7GOB9L+uC8+PsoajoTASqdtYctfMKzL8xO5UocuvQ5LU5XWcQz2dP4x/j9eL96P90OB6XP4fte/uroI+W3wy+/ws=);lineShape=1;" vertex="1" parent="1">
          <mxGeometry x="541.6952810629429" y="281.8526338156033" width="3.808215237244891" height="1.369915839511595" as="geometry" />
        </mxCell>
        <mxCell id="r5jIDg_zJhUNZUnPyhJ6-26" value="" style="shape=stencil(lVjbUlsxDPyavGpk+SL7mbb/wQyhZEoJA/T295WbcXosh83wFg4rX6TVSvIu3rw+3D7vd8Kvby/Hb/tfh7u3h138tBM5PD3sXw5v9msXP+/izf3xZf/15fjj6e709/NtR/Zf348/+wq/T3baqGm3Ev5z+sIU478PX074x8PTBl8jaZ7wkSIDvBLXCV9IFOCbx1cK7X18CyRxwge7QAEG5/OeDYSKAINMIrNBooqOVKil2UApoCNV4jkGoVGo0KDOO0igAKLWGqUwG0QKARroHAbJFIFBYCae/SpKirdoZWYSQyqZQXbUi8QoEOYmt0OhgHZQqm6HRpJgqNNskIQyCkTyd0iZWgYGQuIMGkXADUsgZ5BlOPqyQR5hOhsUKuDSNVCe2VeYEshpLaRzBpVECaScLkldKiVwpJIH/YeBWhwA+XKl3GaDQhl4KQcqM5cqj1BeNEhprHc2SFBZo3oumXZWwFZLF3eHxoPwFw0kkTiDOPa8nNSVdL6DiWEG5DNl5PkOllICLm1i7dhqSQu5ROJO1KAusc/oLjuAejyIucEr0Bj2xDM8qiaLSnZpBg4y/HJfpEjmz+rxDDjBntbm/4Z0flSyDb6C+wYvLoZXwCBZ4mvrg/OIb0f6+VHSUEiLf0AKxCG2W/+D+8ahU9v4Qnxc+QPuG5cEa1f8WRY+o/jKaAu2eMD/4OvZphF4x4DXDUAA2G9g+IoTYEmwAhxkp10clMH5L+FR18Kjfd3gUedl93Xr1yv+adXjkX/ChfWRwInvx/v64L5GOF7wQNA/irc2NHl8RAPFUvOUCiK0+GbcmjzU0oUy1jsbJJxismioYJfaDZdCj4pAtHZovoO1Eki1rGuVmRV9zgNZY02oLO0QAy9ZTxnmPLaGCxWmYsRwBgKV2lpEnZlkXxjEQZOvBdaWojtoHa3DpvENwK11UWtzQ0QGxTeN1rwj9bJuP89yapEJaJ4II9s3A4jiedl1CEYWNIBYi8jLEAWH07IYlCGy7xnoXDT7IIh2UN+lXRs11adoH2aRW23mn3foQgVkqS2RttIuaFzOow5vZn70ktLfLWaDgCdHky1XqoLC3sVkK7l3i4zfLZZibmrb0KhZlx0YPipYAsU5Hyoc62wmE/88VVA1YR/nCHmh6vt3hlKvy9sRw/N0fHB4VKw6vjp8QudRr5EMSWf46J8TA8YXfx4GDDIJ5ujxWLKT9w/qTrV6eWRcQ5oXCoZFyvDJr48qiOHV+xOpxEefc6/j7cf/t+P7w+Pj6el5+3//1myfTu/U8fNf);lineShape=1;" vertex="1" parent="1">
          <mxGeometry x="541.1899286571914" y="275.15340636077246" width="6.896608914452752" height="19.506318408839643" as="geometry" />
        </mxCell>
        <mxCell id="r5jIDg_zJhUNZUnPyhJ6-28" value="" style="shape=stencil(lVjbUttADP2avGpWq70+U/ofzBBKppQwAXr5+2qbrolkfBjeHEfHq9s5kr2Tq+f7m6f9Lobnl9Px+/7X4fblfidfdjEeHu/3p8OLXu3keidXd8fT/tvp+Pp4e/79dDMsx9WP48/xhN9nXKQaByiGP+cbuVJP/+58Pds/HB4v7BtxsfZMLW/bcyFhA0iZct8GxEA9W4BQawCQqRYPYN4GSKDiTojUAgAsHl8ACnApBcppBQBZ1Zwk9gCUpRworGJIFQDSOzGIAECjvg4aAIpQTKs6gKBLpSQWkCiCE2omrhZQcLNqiK67mQLIUms+hpwpgNbo0fdSLvPMrRPYAkqmDrq1VmrRZ6kDxtVC2QEYdqumNdlKS6GETkjUbJZip4ZiSLNzFkD86IQeDIAz7CWNoVgCtVmYrST9T8kSM5UC7BsF+3wVEcDP2ikVZx/A81ugZu15ln2rs4Otmaog8KfJbOPl+UwZOSSUbcDcKANyDoCNQF3q+AS2XSSCyalstjFIJ0YuMbFjgsxW36padRKmaUWNrXrRPSCjPlXBEu9SQCcsdV2CbiSYza5TJcIsDXJaRYppOrkFcAOX65ScLZfEBs0BK1Lxac2zklsamW0IPEfLVtm6HSQBqryyM3n2d9Spn7TXKdJcCTRgNHbalM+LvkNdwSF4AdAkIEXtaY7WCeidMkpSn1R5q/IHaU3EVoR7hkvMmIUOEOYj3gdo3q0CNCxKJfqtR1UHjTZdk9x4VtVB7FkvYgqIYFStV72ha+CEsUyuXAqAPmNdLSsA2qB12q5PAGnVlbvKKgYAGLMjeYAgAHvKKQBNRNWsYDVAK90R57xMtjKz8H5WKVqHOu4kmQRe7AVuw9Fr3thFgf+aDhtvx6LEfsPQ1TUBwQjeH6Uag74OnvyDB6BgawHTCgLuh9nzi72+60J7t/qXBt93Vm+RRddimM9o/Sk837037N2mkDtmwCff5D+214u3zwZ3h4eH81eHy//9Zwa9df5EIdd/AQ==);lineShape=1;" vertex="1" parent="1">
          <mxGeometry x="376.83921103197895" y="301.6392957502334" width="46.44914974035548" height="9.058472351655732" as="geometry" />
        </mxCell>
        <mxCell id="r5jIDg_zJhUNZUnPyhJ6-29" value="" style="shape=stencil(lVfLctswDPwaXTEgwec5Tf8jM3FqTV074zh9/H2hqlQFWtpObrKMlbDALggN8vB2fHo9DJ7fbtfL18OP8fl2HOTT4P14Ph6u402vBnkc5OHlcj18uV7ez8/z79enKXK6+nb5Pj3h54yrJGkCef4132Bi/nPj8xx+Gs+rcC9Uahcf8n68RErBxDuSsh8fHVWbT6BY9+NTpuzs85lS3AcUpuwtoFIGjCuTsAGIo4AAiVgsBd+KvA2oxNEAolAGHBwvTWqIFMh58IpC0ZY1B9jnumTQAEWoOlBXbXQxgOqoABI5krdl0sIVIA2lmCxpLZwH2guxB6wKt41wlFz/igBISOl7XTMV0Aj1g7d+qHoHsBahaPVaPTFwhALYtroUaCFZGrsAIjlEOlLNFuCh+kQFbknnSkVAHzxlK6asHID6QmpVXwEEdDpyPzc0JQ84RPVLR9qRQ5MsUbTSmBwE5BpVObZKJWMOCrCd1lmFxDelZId31bEBJpOSdpa0erQi0txz0MmDSGvjqp0z6riKpVHvLJoBBxWfi31K8MhKvYGUtAfimwzUAYQ8aNxk0U5LygGlJBRs44qmhEjH1teV+BgBcqv6AuD2zr1RGe4sCj0dW9VXgL+zcBeQPgJI0qs163YAUsrSJukCkLaubAMysRXfdO6iQ07bZN8QfXPINsBRtgYKDKWREgWbkqhD0NQo/e7gEz4UU9vYFgDDjUnV2nFwGTZOl8qOg0uwrKUtCkt8bBbcLhKl2scnMMZCWyGX+NDG1DYBKlZ4TtdkMDFcWyqWeN0QQYG4t8605ILn362HBfqA+4GXYPbcr/S4OK5fuAVubdKvha4Vd1vOxFYK+AjM/VxkeIh/8Ovov+F68e9D7GU8nebvuPX//Yeb3po/+uTxNw==);lineShape=1;" vertex="1" parent="1">
          <mxGeometry x="406.3006455926825" y="298.7732472353463" width="18.5047400101488" height="21.23165324356093" as="geometry" />
        </mxCell>
        <mxCell id="r5jIDg_zJhUNZUnPyhJ6-30" value="" style="shape=stencil(lVbLctswDPwaXTEEwec5Tf8jM3FqTV0747ht8veFqlI2KHmnudEylsRrFxjk4W3/9LobvHu7nE/fd7/H58t+kC+D9+NxvzuPFz0N8jjIw8vpvPt2Pv08Ps+/X58my+n04/RruuF9xtVM1U0o7z7mL+xIwt8vX2fAYTzeAEqgmA3AO2K5D8hCxRuAMCUASImydSnoFQkA9L5gADGSAzHESjUaQNIXCgAUEgvITBm4FIXYZqk4qsAlSeRs0DVSBS5pEksHKOTyfYBPJLYOtVIAMVzrem0N17zcRPBSp5snUKkL+VUMATwglNnaJwrgftequtgLVWjfF4GJIwiY2MZbsP+BvG2jokUGJSjN28U+kANNwYGyrXHx8AGNwHEP+HfFNiATW64VIUF96imUPgbENWVC6JKayYEYpFDqANp16IWyatPFyW2AOmDroORk5JLmxNJfdTYA+k9MWDHHVQDw5KUHVFA41k7jHoBUtTb5ueFmBb29SO5NyChHKtqdHIWmaPe42aXUwww5ih3XKgnUFtdRJ0EmfNZeHQo2gOxgxVQtglWj5Jt+3ONmsSFHhnIngZLtCdGqg5yGlYDpVEEu6eAM9gVeqLG9LXBfZoGKqtuFWB54OAWz+mvblBu3t+2XAdbsXRuj24otrcmu9mhkTtoWe3vgf3X9rqN9DoRFB17JXbxIrnWgxtTlE95fepoJ3HNUdLoJFSki2XKrmayyggKoLb6Fl1QY2H92Af4PgB6u+/bLeDjM6/rt//1+rp/m3V4e/wA=);lineShape=1;" vertex="1" parent="1">
          <mxGeometry x="444.94114755247756" y="300.01163667860123" width="10.889962201762534" height="24.55327552994906" as="geometry" />
        </mxCell>
        <mxCell id="r5jIDg_zJhUNZUnPyhJ6-31" value="" style="shape=stencil(lVfLctswDPwaXTEkQYLkOU3/IzNxak1dO+O4r78vVFWOAUvbyU2msSQWWBDgwA9v+6fX3ZDC2+V8+rr7OT5f9gN/GlIaj/vdebzo18CPAz+8nM67L+fT9+Pz/Pv1abKcvr6dfkw7/JpxQoEnUAq/54Wcifvflc+z/WE83tjHQjFaQKSQtgGpERcD4EahbAP079osoFPibUDWE5xLhThsA0qmFgygCEUEqJ6DNCqAtO4nyQBaWQK9DoiUxAC6ZgbkQWPClkMMgQIgkTrVbo8IVBGgeEBt1DMEiAUIQzFxILGsc4dxVW00K1dd6QCg+yXrkp6ZUSJUTNUAUqYIThChbjnESgVEqUWKjgN1UA9Nz7cUVCto/0rVag/rokcv7kAswD77/ROlCuwrZbt/oQL4dk2Zrf9ODfC90f01QBkKW0/4l6AroC/1ukWhWwoqitAAoFC2LqWKT0gUrUsTa5CF1jwHFXYBLqmMPIe+lOuWTqt4DgkA6t2VpMoWUGu1Uks+D+geVkB2paDFAaKkFxbbKPVlYZ1z8NorS7Gu2/Pi73ttdhRToWJbVYC1rDd0FGcfUG1qwIvzJ6PalCVB1wuYGPDtzbeEhu1VxC5hDJv/BHCS0GkhQo/EiS6RoNIULwmdgQqO0ccAWjiOdA7UAYeqWXMDjFYaAGhb7dYlHWkyAJTk72xJsA1mHYhsG1QnM1Aea9exLkmlCPIwVaJzKcILbLobmueALrAY/GwrOqCgxPli1t6OtCe+OHX/CuyzF5JcB9H1EN0ljZdJd50w5buIMig2bRhuDO6Qb1gG/ZuxOcP9XV8uDPmGu0FBJx3QNKOPp74EGshv8kO5qhzZ56UIb98VgO9H31L/t9eP94fby3g4zO++2//9Q0+X5kciP/4B);lineShape=1;" vertex="1" parent="1">
          <mxGeometry x="462.92797541759774" y="305.56017210923903" width="20.86442374798725" height="15.347809644649626" as="geometry" />
        </mxCell>
        <mxCell id="r5jIDg_zJhUNZUnPyhJ6-32" value="" style="shape=stencil(7VrJbh03EPwaXQkuze3sOP9hwHIkRJEMWdn+PsUInAyLmhJ8DOCb9IY1ZO/VzblJH77dffp6exP9t5fnp19v/7z//HJ3k366ifH+8e72+f4Ff92kjzfpw5en59tfnp9+f/z8+v/XT2Pl+Ou3pz/GG/56xRUX2gBF//frD7E6s39/+fl1/cP942l9d6Gs67MLYn11rS/rk3exq/fXvK43+f5gLtkKKC6ma0D0rjUGeLEDBLRV5ASR/TUAEhaSIblSBKBMEQ9AcEUoyfCYrNZdDAJQ54kPQHEpXwNycD2tgDQ95W0AlLgKHbrrUQC6s/VIobgmACW5VFfAoYa3AZ59NXjnqzgStEQyRNeFa2SbvnwA8Aq1Q3RGag1Tqiu1WuAd5JH6fHwAzDUBgFpDYqG9CKBSXTYGNOF8FVqnnOGlL5U+A/Ls3kqGxllshKjaoc5wmQCEVBV2KEgqcQU0V0WIljwdYQJydk3tYBxAJWpA5BCF3rISOnBeqtl1JYPn3NrwCh3TYdVSg/8qQHFlTQI9ycyX00wqB6A5E1qyzpYOHv4o0rdBKXSmIkuQmcurIbqfprkCpDVtNCQSkY2tzMeH5arOZJ6PhCA0cSToNa8xihAxUbNguU4Ac1Wlb1RFctc4veUqINJqarhX1ompU8iVacq3E1OYVOcAHHu+DTBXCIC0IUKugs6svgRTNmHpFlmtFmedfBuQOW2k6orIxgBQJgNAOR8AdY2gwbBEjCLm00aYsjpS5bQB0teFWgHoG0usaoc2K9QZICzdOlsaMnixA0KeYnoILUK0h1llT2pNIuIAyCRDnfn5CsBCI1cKSwNAmS91me8BqKvQ5mVVBMDWQo262xTA85FQdxVbByCuakVMq8reI6sVO6iIQ4WKW0yrdN+N2QlKjKJkPTPTBUCFKAoUeesAKBnqzEIngIoHVNlWWeiqhO4zC53UGpQMfYb8AeiyH+gb00UyziqAUD5Ww6HqBeV8jTMffCkrGepWH9A8qh02ep+zLFlwDWpRAKhK6DQp3gmgqAMAVFAG51JH2noadDlJZG8AAh0J3ECHKMdDmwXgCkDUGA1wUnZIrhGgzObxKqa5Tme9w95AZB0PlccO9o4vNaZwpnv8vnXgdvjvZcQRoMu8dKLaJ1Oryj7SBvlG1L7x3YAtG4/BgspknrtRNINFESab054TNc5CryB9jZguemzFTlCCChuiKpaI5pIKdXqP9P1giT9Y4v+HJRrtAIfXrkERNyqKCqDEE1dQAVVGm2c6g2a0iTSDjp5q1jvt7mhGt4Y6Cjug3Q1bXlKzxH3Sh19Uu4tMSpSsej2S8hxANcm6C/JCR4LelFpRDagCwZTKvUEi0xoPiHJV2UGPSuUdVH2A55Cla39vtk6ECVpSmS9XHtyVKluU3HiQXQ41XE76ttGJnBf12fKcyIayA1zDKES9PBIARMlSclmNN8OcHB5j5iqraIls6XHHoWTIfNcUo8waYyS2Ol/MMoBgaXLvcUOnJoPbzGtcV4kdBok01pIcVmb2VmhJDbLhCHHVUkiykQOHbKvQVZbpnLnqxnnLeDn3XgPUy6o+0mjm9cqP2syihw1ktUISJbrXJI/B++nSNdisqFd+6jeTqcu7UWnI7aIs6UgweY1mOLa8HjRme3BsRdPBgHkQGuWUBQw4b9RKDU1ApBolmC4brLQ1unbE95uAWGYvf+IxSugY+P4E4apcLxS+PxkDaQWITHysyCaxcDBDz8pZN08C/VRK3WITWk5CgK0DheMpDhM2z/ZySJT40iFoRl/ZAOOOWazH40yX0kkS+rBdFuGXqgBH9jwFc1Y+kbnSIiGp4h82Epb0iKhtpVwP3tp0gXNrqG5+OGxG36aulraWx3R+nNfV5/Or9Lh9MWJyyp23++4kL66MyRf0rwy2TTBSkAOJfb2X9jJuv5Dci7BXZrY5KqDis2xfrJcV+Tu/gnp/Pf7475OrL/cPD69fbJ2f8yda+On186708R8=);lineShape=1;" vertex="1" parent="1">
          <mxGeometry x="485.49425281878734" y="301.71991844437093" width="57.325940522485915" height="41.62698067900893" as="geometry" />
        </mxCell>
        <mxCell id="r5jIDg_zJhUNZUnPyhJ6-33" value="" style="shape=stencil(lVbRbtswDPwavxIkJVHUc9f9R4Gmi7EsKdJsa/9+9AxnphJz6Jui6CzxeHfSkB7e9k+vu4Hx7XI+fd/9Hp8v+yF9GZjH4353Hi82GtLjkB5eTufdt/Pp5/F5/v36NK2cRj9Ov6YvvM+4JKB1QjF+zDMISn8nvs7rD+Nxtb5moOLWN8jBek3Q2K2nDMLbgMaA5ABsn9AAUKGIA1hNJdiBEAHRIQpCC4poDdCTJAWkBIDcs1obMAY0VdDsaUWgHPRBoXqajIeUtgGikP0OKx7uIooC3WyhbRuQ7UzNAyisOhNkT5NiyKt1tvnOiVUd0JQKFPWtZhAJABUkeTXpovj7NXDfOS6QAvmZ1sTrlUqoV0HgjlaogSEqQvUk6TJxX3tXx18PxJCCPmvrHWehkQNSmwB6jhIvjtoyXLdDliUWtgDVA4w1DYq2I4kv2pKtRblkJfrg02t03meJ+uRrJYzKegtoIIG4xeyjPYAiJRmgfQbAGepN0TVIGTL7dI5OkKMwJki+cbWGF5AA+ZpN7hyciCF7PxsJFAgDlxRd3w1Bm2/ukoxxwYtTrlawLwTeyX0e2Y4lEvYSPiszc2BmCx/2ByrhXWiEki+YQkVM7wMvofjW+eyD5P/rbfDv9fMyHg7z42n9f/9asqn5pZUe/wA=);lineShape=1;" vertex="1" parent="1">
          <mxGeometry x="537.5917957741954" y="308.2223259767221" width="4.7802370454341006" height="3.3716210684601196" as="geometry" />
        </mxCell>
        <mxCell id="r5jIDg_zJhUNZUnPyhJ6-34" value="" style="shape=stencil(7VrLchw3DPwaXVkkwefZcf7DVZYjVRTLJTuvv08zKo6HzZ12fMrFt9WKWJJAowH0zJ29+fzw7tP9XfSfv7w8/3r/5+P7Lw939tNdjI8fH+5fHr/g0529vbM3H55f7n95ef794/vXvz+9GyvHp9+e/xi/8NerXUiupmEV/d+v38Tqavv3m59fDZ4eP54NoiuRDXy4Nuiut3V9cyler6+u27Leomt2vb64XNb13WVxnuJsPX/KLubr9c2Vvq7vrlTpIAuLQY7Tx7cNkutrCHJxyQuD4uLq0pJdEFfADn71UTUXizDwLufVAG4QdyiurutbcFVcwVxandqiSwJ15sx4vYkgRz4/1gd1YdcCn78IkIbp72O9lzH2rqy/X/uE7cX6aOx/FWHv/ArqirTocr1f1wOEAtTehcoAMvn7mc4TJsgv/Mnn9xI/iM4K6NInAi/wYJ3XB0EqNtFyrG+ui/NUF1f/lOSSysg4r3fkPC6gAJpdI4PimkJoY2LPSDoRguHTFaMguix8FBODAkxqwkmDJVavJuSF2qEzLCy7LtLevGtrnC1MrrxtAB5cDQCVIgJniOt6B5BrFpkDA3KrLn+4YVzXB3NNIANXCCsyEMmsuDc6v5JL1GQxvLpCyYos+TCgcpA09hClsla01CYj/8cwAN1VubXO+nUYIKNEoFNwafUSEi4KtwL8FIecXBRHwhUzGXiXxKXx774lnBf5g8YjUeDa7K5uG9i84mEAdIn8GZ0KZWiSGQqDvEND5M/YYaMleaQ+E/jk1qB6l8iBSzrS4HZqgcFjTdyhgKpXeCPLmzoSisEa6ZEhqv6Y62s+jL5bxGH0E37bQaAVDZSnI5WZg7cNMtdQRDqLS7fK4AN+VXlozRlVad1ltO7img+jzRA7dPRJa3mox09cGfQVGnCDKg/dmJdqlZ1kRy+/YqlmObDBoG29nuKlnieTnqcFAb6+df81Snh3XLHzDiqne9uOhOZDlKzemfmGlwTdw4BSdMRBdaB+76G7vnWfcToNGQqufYNrs+m4KzfRrUcSKoM6ufcwKPNWV6GmqgiDoMFEBWIkhApE2ka35EwZ2CS606ynZlUYZLq0l+S6G4A9VXc/jkTQ0BP9uDTNe2l2RJdupR10Ge1lM4izV76ExpbU/RvgMz6SRGvfhtw8J4rLBKI41DkgfEeOSrh2HiCQo0op+X6DMgfPaYBYeuUm49kSeyotAFWOkvrkh9sWheUVnEldAilJoh429SJ0batacFMTAAfTha1EmNohbqJYkk0ZDkBCYK5S0wBLeBL2ghShgE6jxjLLMWgUNep1TcoUNfAYlJIcFtFYkpeGmqk60U0uzbpCoJsmaQ/fqGERXu+bmmkiR4eOsR6p2JSbruamXTtR7DoGhsheUvCGgdFkdoyPtw0CswAGrayOtI1yQ3bXc1Nf+TtqSQpzE2Wcxck8tw3a1NlPynvVR6rblB9Fxo2ZfpvBVb8OtxbS4by8NCY96tcBPjVzIL8opwuyXCQQgEDNQ2nyeQNG9Lppj6a0ygM5h0GZev+VrEaiF+YmNSGPZyab2qJ6spiZ7pNJmoEB7YBbqRSFQd/yQSnYuANJ/DFKbo2N6T7AreoOnatoOIjnSogjqoySNDBwtzWldVlHOhJ3mxzxsZ58+vVh3xVU6UBDaFfYrlsQqpwGhsaw7mDf1GdJ9h57KoNDYzhB1SvJ2M9R9cRipqBamSeRPUqgBVHTI8dBtSIOu3Rf9MQetl4dLKZU6ZC5b0DrobC3PwWtSTf3myRQ5jOe230Gd8Xo7JW0aZOlT1PijyeI5/U/niD+n08QjbX90aqr4YLFUmSw6qX6jOZpPFKSROVRZLTx6iER62fgLFUKAg+p6HDV5LJ32Hmy5FW+kFzdNWG5Ss2s7n6NnzJELfQW5p+RoTJeVANClT1aMCaIcITwitLpETSqgkL0eO0ks4F60wYGVIuDVi6+XvHkJBm0ynVs8IC6Q+U0GF2gepunsltHJVF1oG5NXZLFGwak8g4kCWSE7WnSeH6r45C2rivqas87VNmNw8C2HZT48v2vnX3bAB++vuX24fHp6fUlufP/+a04fPX6Rp29/Qc=);lineShape=1;" vertex="1" parent="1">
          <mxGeometry x="548.5050041647667" y="303.56999683109905" width="71.39882153505" height="34.74041340329782" as="geometry" />
        </mxCell>
        <mxCell id="r5jIDg_zJhUNZUnPyhJ6-35" value="" style="shape=stencil(lVbZbuMwDPwavxISqfO57f5HgaYbo2lSpOkef7/UGnZNJZ6ib4rCMa/hUIPcve8f33YDu/fL+fSy+z0+XfaD3A/M43G/O48XPQ3yMMjd8+m8+3k+fRyfpt9vj82ynV5Pv9oX/ky4SI4biN3f6SJVcvn/zY/J/jAeV/YsVL0BRKGctgESqDoDCIG83wa07xUD4Aw9tIiTAfhAhbcBJVKxIXmSCuzVgbV388VN+8rEpbMPoKY1ktiaMuUA7Jd6LE2jWIB9JbHxeE8RJOyd6zP2mRiFVClGmwJTRYBCrlrAcrNVpC5pYfIRdqHYqioVMyCetjkGC4gUQF1L6vumHgIgRhEKnQdtBGBG8XPVV7PAIKRc56qv+oC4qoCUbacTMQpp4fICcJTQ9HCfg44fYEYJfd8YUq/kXmAcMZCLqjXt7ZEe1UBiqe1n+diazk5SI+ZpoWq/X6kIHLVOgb3qB5A7BRQbkGaANF4jSp0CJyxgiZL1IG5O6jZAZgqsJsd9GwBYoUshW32JnhKgRWSKlhZJ9xRIOnA/zNlTBY3TWc+2SjpLDJjnpS+rdsaD6W+ybnP41OXbZSXuqO3walNu+ysHwP5q+TfdB0WVmQWLfYTDpgnbpdBUH/TAURTbggpn52oPFrwSXD/7quARx2PFNOtuh/mmjnOBGMQvs/SsOMpArL/7HPzaXg+fb8/n8XCYnq7r//u3ql5N71x5+Ac=);lineShape=1;" vertex="1" parent="1">
          <mxGeometry x="573.7411937960055" y="306.8537419011508" width="17.496077059974876" height="10.024408085699685" as="geometry" />
        </mxCell>
        <mxCell id="r5jIDg_zJhUNZUnPyhJ6-36" value="" style="shape=stencil(lVfLjtswDPwaXwmJkijpvN3+xwKbbYKmySKbvv6+dA05pmxP0ZvjcGyRMxzSQ3j6OL68HwZ2H/fb9evh5+n1fhzCp4H5dDkebqe7Xg3heQhPb9fb4cvt+v3yOv1+fxkjx6tv1x/jE35NuCrEMqLY/Z7uZPLl743PU/z5dFnE50wSTbwP5GQfIImqt4BKLu4DkqcYDIAxIEaqFhASBIRKgQ0gesoJACIVm0MsJAwAnlIxgJQouH2AptjRIHokDwCFvD2SKDMZADJFZ4kOFAFxCuBqAYVyAEk7SpaHotyDpGMgb3kolTJiOlOxR6qOGLxBtVQtD9WTR+JTLSULYIqgH5JQsmWtEfaDAmK2gATLqkcqVho1UwDS0KSL5aGW1rR7Zc1WS7VSAjlEpmqJ886RA0SETDX3r0DaCIFC6QGM9F1bRy6yRk6m+nadmASqj6URu2DOox4Vko4IbTngM9rU2ZqryrUiJ+OW4qIhUA5B5Wp50JariGrfy3XsUdTUQkFWb6hArnpiXuWAWi721qc9isSnLeel5yEB+1aArJlGR0qtXxZaKqhHeWVMhRi4QKzkVw2EXECnYn+k2ibx3lQUtwIA4kbAyjYQoKy8Va0S0MDN22cl5abezfjZghYDKwFduN72MsNemHtxHrnSWNwuEInNV3RCgvpo51hDSqHNu834udrzViKwcbxOElsgpTAC0WmFOpWq4Ti8lWT7Bk7EaLPKbboutkPEmaboradqVgkkrTUv/YLLaMEtfVV967xtUft+UDk4O0vsE3D4+Tqm+ucjs1Pz7KaUaw/Yjuc2hx/xAYku9eu5a+v3dnxuVvuopwBFqIc4G8/QqzW+WGPUGQvOv9hU5raBAH1BtDaR4EY4rh2dTeCC/ucX2L/j9eLxufd2Op+nr8Xl//3nod6aPi3D8x8=);lineShape=1;" vertex="1" parent="1">
          <mxGeometry x="623.651790693222" y="295.2475822991569" width="12.321882532015444" height="36.58222824624125" as="geometry" />
        </mxCell>
        <mxCell id="r5jIDg_zJhUNZUnPyhJ6-37" value="" style="shape=stencil(7VnLUhsxEPwaX6ckjZ7nhPwHVTjBFQIUkNffpzcubVYjbyfccuBmjHpnNI+envVB3z3fXj8eD8E9vzw9fD5+P9283B70/SGE0/3t8en0gk8HvTrou48PT8dPTw9f72/Ofz9eLyeXT18evi1P+HHGRZXgF1RwP8/fhCDqfn/z4Qy4O91vAJoluQGAR2giACcpD4DURP0+IBTJo4Vc+yMuA2J3oANKldAIwEsuA6BmcWUf4IvE0UJLUhkgi7YRkKUQl3yyYW2FW4gSjEtVCgMEKcZC67e6DHDSkgUwl5r40YB3ThyppTJdAQbi/nnEKNjzSoIau/VNiHIldSGl2hwUFiFp0SY5k0L1k/9JIkuZJBMfJJ3EJ4gzz1dxxB9n41OTBOKPkzB2MvqMtb4XHf0pTiLxB1ykY+N7qSRfSZphlkDPN8t1MfaI7bVMHQ0oEsa6uIgfAUuNs4rz9gq+SWPUBRoxANyBAHRioiSZ1FCsvcT6eUeJKyNG3pynPQ9/TIgkEn9qtcRYxJHzaHFXbIA8ScGGpFaPknhS1nVlqbUsohQy0Uq01Bu9eEZ04P6xE2LqI+ty1lS8Ke1KxziylMfe1DXQlwEgl5EcUVmRNA/YN5YpSmyMF0t3qpSuoSxatQCmLOBADK+yUGzxLXdgYgel0aYokbCiEEw7IA+RuARAGYsvOuoSAKa8Y+hx27tDMIDYB92uJBwTF3FpJQC1gyEWOnjC1HEAsLCCJmOzLjEaw+wxohMdl5hK9ZMFPIJZcKJjtSIziURpAZgGanz8+145K6BQWYtLJ1OtqUuy3bAal1TaXxI3dRzdFrTT1gbA+mEpvpEq0aJKeAlB9NOlK2tR1yfyJqyMyOYWVT7UFxIYw4oWDdzC6wAgFaMCEKVMyju5vkGtgNAnxmUdgKiPeQi1y+m9oWhKAxODrXlQDkY+Q25VJk2SHVle6chKmPtGO4S+01zOAzhizDT2uMrykKV5e2llgFUdrXlwvboud1y1q+qSezankxVMC3szC8HOh4T5QKLkp6GYeR58tYth8XxRKtYlbCZ03Z6IDKKusdXtbaE/vC30//tCr3YWNjyBbTJ9HV+7QKWy+HhbciDlSMYIusCPEc2ZrkpofRPStK4FexrGCOg/43ePIM3LPwitxAhyem0AQmPiEwxtLo1bUYDv/95MtsREDxT8mGjwE9X0mPYTIDOJvuZ1A0iktDFl7OzMdP5DE5VmL/0X0eMnAJVVob972eShkeKDgndTpllY47TIBL7Yv/p1+z8A8OHP2/2Pp7u7848D2//bXwPw1fmXBL36BQ==);lineShape=1;" vertex="1" parent="1">
          <mxGeometry x="642.0287161716383" y="303.17465277392523" width="20.00465974713524" height="30.467296886103423" as="geometry" />
        </mxCell>
        <mxCell id="r5jIDg_zJhUNZUnPyhJ6-38" value="" style="shape=stencil(lVpJchw3EHwNrwgAhfUsy/9QhCiTYVpUUPT2eyfMQGuQ6E7aN2qmU0BtWVnVc2cfvj98+nZ/F/3315fnX+//fPz8+nBnP93F+Pj14f7l8RV/3dnHO/vw5fnl/peX59+/fn7797dP48nx12/Pf4z/4a83XOguloGK/u+3T1J2Ofz7yc9vgKfHr7eA5KJfANlcywIQXF9PyN15dYJ3vi6AkuYlTwHNlbQ+311O189XF8PyfG2uiwtV1+PyfMvzhucGmLPCABMXCtXV1actuCp8GoPLq4tqdklcKZqrffVR1SeYy3kFeNe8vFKyNcyIWhNGt5kFR+Z1V5WX4FYClOnoU0B3YbU5pRnJq0yNK8D6DMzFAZTZlpypUkiurZlqKDbl1DgT8wAgeU0A6vT5AYCbBcAQtsyAKsKGrzN51bskogCnU7nhkyDCkFBva3LnMCN/DkCg19RDrhYFaFyg1buqbCgurTagQL2yYSuf1mcFngO8C2vgenFBpAZSjbwUPIhTJRN4svMRTRRcLM53NsKL3ACACqJ2Zyr7wCnGgTDhVyvMMiVK4kMF9zUQuc1PriJX1kDkrHMDJbe2hxynVacA8CLzEuIg3Jor08a4pDihoKgJALeK1ECDpTjA0YoF0D2Y+sx51XNt0tAExCybei2sAtAlVRMFoK9uhZAISjYEpg0AVBya5/6AHhZEUSP702pDPNTTOQDcS3EIUisBEKijNBdFPdRNzAy99w6ACsik+sGV0ipmwMZR1PTgCAIUKTUQh0ysESc/nwPMJSIyrxXlZnRL88xzJWCTrA8A1IpIjZ5mMh+AqE/InBoAREFkvW5XijLSvU2uvrFBdfbeWWy0JBsKAI2EcZl98mIUOFragWgy1DiC6Lsj1OpOjUPdgzaiTpI4AJr60GVJrANQRUEg1KwFTBbE+NoYoLR3j5uX4lRp54AwZ7wbt1YNYMUER6v83uYHFKFX+Y0rUVHn94yuVHLvupXUNypISYGeeZgeNapKrriSGSBpYycmkzIR9cAFlKQkA6AGdqsSTGc1WqXWHTRAgejTD5dEswIQfKUFUNQUiJHx6kpH1/yPANzYNr2uWABu9wRIUpOhLe7qW0WuYiKgOPhZ5leajHpQBfOIOKDN0sheMFMoEednzR+AoBXTJrGyadXnWVdCzyTl1i1bMVKrkhsTyWp01FuBeixKDkDUNoS5cTt0ZZ5T+VWkPYk4nayweS0HPSmi4omLq5zKkNt9TaRQpAEgrboWQwxTGpwDtszDldQoiuqhpmtxptbV+FAJUOaEfVU9hYKAFqZ0rp9rj5tUVQuvsg27Y0Mm3IpZmGwY1SOulPu2zC0ykzDakqgsNieQ8+k4s5dAGV0BPG8pkO1qm2tHbt7Qntpg27bBhgpVOtc2AYfRMQq3jh0Z1Y9J1Wp9W2FrJW1beme9Cx020Fojyg2W+cmKB8DrXWXhJo1sVeM0Sp6yFQBVosG2TWKVrFF43EjFBbUsYpJBIFUDbdu+OLomfBoSNyvkohrvwdO0RkS2N+GiYfIKSKgelRd+W7aazrw4lyoHoMvuZpFTtRzzzRXArzYMGaEAnqeZqhcIcavPodOFl2Kecb2RuGqHHeO2aw0SEDovcoY8VIDAOh2zgdzDz9S/OUARsec1zjsmb7qq1rl1uXi+0q44yLdwkYsf7VGt9za9Xfzc912QBdmbkxSS20uHpF+cgL2I403z43jTGhnghcUAkNoGfykZFjJPxONtkWLgrYuAj7oCVF4D4ARFwT82qrccrN4WN9cqe0l2kc5XGu9e1JX61qf0EBO2dw4pylFvAOhKNjf4VwBivKT3k///Nf/7APzx41cFXx6fnt5+lHD7Pf8KAR+9/YLBPv4D);lineShape=1;" vertex="1" parent="1">
          <mxGeometry x="658.806981534349" y="291.841426065973" width="46.45890382828786" height="34.61562073925882" as="geometry" />
        </mxCell>
        <mxCell id="r5jIDg_zJhUNZUnPyhJ6-39" value="" style="shape=stencil(lVbZctswDPwave6QAMHjOU3/IzNxak9dO+M4Pf6+UFUpAS0hkzdZ2jVx7YID373sH553A4WX6+X8fffr8HjdD/xlIDqc9rvL4apPA98PfPd0vuy+Xc6vp8fp9/PDiByffpx/jv/we+IJahtJFP78fxGQy783Xyf88XB6h6eGQobABS1vE1IGV0OgitS2CZIRgiVEJNom5IycDCEmsBNSKQjFEDJa2Ma3iCYGH+YQ1/HL8W/44uEzxMaTEKKDr2CLbxCnok0/2/hjRpVtQgzhpgeCkNwjsg2JGVTdHMQOXtIisVuk2hVJ++53odgcdLTdkAgcLSHOs7tKqA2NbUiqDo9QUDuCIDuTWjPIErghOZ2rMqe4ECKKMxtKCLYPxK48lZDtCVGQnGnVHJo9ofr4itqlAPLUEBF7dbLjYI0hvTqjh5d+8Gj2m3X8TZMLxLEvlU7XY7Uv8uXcrN9pRORMkRKqzZjDR4YROpNXy/EImqLVWkrzmVtFTTYklQ578mfEW3F6Y6EE+gyhqIXZORIBOwaTa787cwQ54pQKso3T1eWFlCqyzaHodnYITL2aK82tXBcbxM7eaOTerp3NZJnV4O9CtRcrZjX+5vR5MZ8Fn5EcS6V+LNTFPb+L8xpbClTnCFfx6iXUF9TrwM3iLFoyFx87fJgvWBv4biJyQnPij5BONmoGjntp9Wx9VASeVaTevISQHDf97H3zY7w+vF1unw7H43Q3fv+9vwzrq+kizfd/AQ==);lineShape=1;" vertex="1" parent="1">
          <mxGeometry x="687.095014613054" y="298.3675861743345" width="20.91005974333344" height="6.069734541934552" as="geometry" />
        </mxCell>
        <mxCell id="r5jIDg_zJhUNZUnPyhJ6-40" value="" style="shape=stencil(rVfZbhsxDPwavxKiTuo5Tf8jQJzaqGsHjnv9fbndar2iNlMU6JuPmV2RnCGpXXh4Ozy97nfevd2ul8/778fn22EXPuy8P54P++vxpp924XEXHl4u1/2n6+Xr+Xn+/vo0IadPXy7fpif8mHk1kAsTy7uf8y+ecv39w8cZfzqe1/hIUjt8pewBPlNIHZ4jBQGE0p63EPQNBRCEcuwjSFQzINR2gEYInhKImZ0j53pGpYiiriQ9IWbKDgYRekIKVFCaEqWekB2lBAhMoc9rLuTi+wRJVPo3FNUKOFIRcqUnCCx11iT22hNPFZQ6KaEXkxRifp8QhWr/hoqzFISkz5Ia5M8hNwl+KJwq3gH1SSvrgletgDLkwQ53NW7HTLEMLwB41X62eA8CYHKmAQhFEIAjzz2+QO9odGwTGkCNtaCmYok8qBi3/rbgI3ng/mC7hSoCdYvUolvhPci/9ju2eEbty9pyUihwGTPFIWAGBWA/SDS1mmwTgvXx5AHgYyUEcyT1MerAOpSMSAUXmQdbVmLUgDdcU0DMxY41xVeoCh6eX8HzFw2s8BGldHCBNhroSluyQgU8f5iAWuIMVKeuHzSUkEpbOVciRXjfTrtyQQH5j1RGV/5H/NRGTcCaMjRplNBHIAVuUtG36bsQEhzgie2KoOMV2VI3iGgmvkDRZSHuXVC0auBI+rdpvsU1I20ThkUqpzZ/tsdraLJcFik8ziST7+ugmxeDI2mZUi9V3e0SekOxvUW3x4KPZGZ+CHDkT6taT9C1IQEtSWwr9ULAdZDFXcsaoh0N+HPa5PqxxjqoQcMTZzcvPGYVb6aUJwETQbhtinc8FBLbDsNwbdGASy8LB/c6zWi1+IDOk9oWdMej1VdFZPKD10aRZpMVHnhfqpWQnh/kX9thtedHA0rvK9Wb/Ac0wL29BjK+Bf7rxfeveP1wv2W/HE+n+ZK+/t/eyvWn+UYfHn8B);lineShape=1;" vertex="1" parent="1">
          <mxGeometry x="691.9788695461439" y="289.81649502676794" width="23.0181424884598" height="45.25570212006143" as="geometry" />
        </mxCell>
        <mxCell id="r5jIDg_zJhUNZUnPyhJ6-41" value="" style="shape=stencil(lVjbcloxDPwaXjW+S35O0//ITEhhSiFDSC9/X51Snx7LnKV5I0SLJe1KlryJD2+7p9ftJri3y/n0dftj/3zZbeKnTQj742573l/00yY+buLDy+m8/XI+vR+fr3+/Pk2W06dvp+/TL/y84iI5P4GC+/X3C6Fa/nzz+Wp/2B8X9j4Spx5QKcZ1QEjk2QKKWwdET75YQGAAqORliAG4lLh5vADEtA7ImYIBMCW/DiiBonGpkANpLULF8JAo1XUAR8q5BwQqGQAqcegAQSiDtHKm0gc9iQXEwI5iT5xXaaAscXNgBjgSFLSjagBUkb0mvbd35ID0JJDLxh4Vg6hsXGefWwpu2tdIpfb+h8bKbQATGw48lLZ3c4SzLjwloItaSfojkm8lfhtQrC6yIxYACJT7YsiFKnBJKqVeSFpPAQhJitW2KkUQcQroiRDtOkBJwiT9Cco9I5eEXH9C9S2q1RN64mrCQbNlemIGnZCJ+7RW7QAIMDswAyoOWpmOFoAKVJQmtoAItKRdLPU8aImggmCxvb7mlujbALZa0qpFPCjA1EN1lLBLvidOqWTcul1PnFIJteRsliTCEp0aXx+DflMR09FmaQKAoNVjw4P+hIA2oyVa2Aad0Qlsr9CppFCbEZtWJe7OCdUAIrzgFBCNljK84DRoW3GCb6zUlLMooARuFM266UuLK+M2wrdRZ3FEwTVqi1r7DCo5aZPLopPB0YRbd1/0So+L+oMAJcJcEPgKmkaNHjANKx/qArnCoJWHYq5RlSuiOttpI0VY1Cp/O6oXLA2281hg2PrUJTOQ6TwjCKAu9euGL7CodWpNBpDhOKMAc7Mz3GdkWE+8p4wbmZ1yGV+KYicyHSsTUgbbsVWXhztzbhh2MofUnaz2UoAlXardBVR7gjem2vOWEpy9dScz7T7NJbi29ZW+4NKct7W9MmYLQDHopB1MDEIBdMpxN74DGLdvBWQUg13v1b6CnhFs21N7NDj4IafSkrZi7wYOCpD23OEWJDO0N08BKcOJddiWVHWomEf7CF8ORn9Co/w/49V2A/wf8+ngNTXwpSJHI8+gh+mxBT3ekOv9v/OcdP/5ST/8e7t62R8O16ev5f/tW5d+dX0ni4+/AQ==);lineShape=1;" vertex="1" parent="1">
          <mxGeometry x="381.4438078606747" y="329.4163502045103" width="43.554093967712" height="26.550440902613865" as="geometry" />
        </mxCell>
        <mxCell id="r5jIDg_zJhUNZUnPyhJ6-42" value="" style="shape=stencil(7VnLchRJDPyauSrq/Tjz+A8iMHgCYxPGsLt/v9kM1W6punPgwIGA2zBMukpSKpVVdYovPt+++XRzCu7z0+PDh5t/zm+fbk/x5SmE8/3tzeP5CZ9O8dUpvnj38Hjz/vHhy/3by78/vVl+uXz6+PB1+Qv/XnAxSykLKrj/Lt+ELC59++b1BXB3vt8CongN8F2KOwaEKrFrQJVSCcCLy3pLURIB+CI1KkB0kiIBRClJA5o0BghSdQypjW/2AV28jiEHKZlmyWwpJ2lkhVikBw0oEkgMKUk1KzRaB4TYNaCkQZZ9QJVcFaByaiQnsSlAy5IIIHrL1tbEkS2BOc4AujhPudS9BQSygs/SdNDdiSMx+DTKtFmhE2qAfIYaAEQWg5fgbJZ8OAZgfc3uViSRHSGFpmxp9Pju75tkTdUWaNWaRF20KzzC39f7r3WI1MH+TX4qeo3V2FnNq4EDvCTNooqa8Bo3ndLqhoIcsSjpmMsVGXZDTjYxZMKiUCRPWepEYDBKoiZ2bSMN++0fhuhu6sw0L0FV5xWIhGXMMqNIcQyXfcCk2yWOqHYBZVIkCP13UdsHYJToLUE2I9kSNpA0NdIa1T4gSdZ6kSJt/5It+ZKnXCpVkm5oKHkhlQY3TR0ACAQA9pthBQCbDCCzIR9i8IRLIELVlQYdM6n0wn7d05iorHA1TyuUIYT7AAxwk9Z1BB8CdE9nT4UbW+qGrXHYiH1l9Vbq0SGOAaYY8uo79gHVDgfE0Ag1luGnY4AsMFvSvbUlSCtTvh6nSnOZ6cXqEraU2ZbaMCGboGkMCHqyh5mkFYBuCldppQEwIgBpSxzgJntYSYv2anVp0REGyJKNGHdqcVG4YOTeUbbCqvVphULUG0aq6cKVRrcEens9RRe1Zf2QrRlbJgYzS9m6H7RoZG4pW1+PMclOP4jBmRbFlliLtkGEFeBGZY7q0KaOqwwQp45bTeMRl+zIWl3sEVtTtDEwz4ee7pp80FYqM+g4c0YstNLerSeLlRtX8tpHg23szBWd2QGQiQIy1cnDVZJXOLYwmXvWEHDOzhjXTI9wpUwerkghVgAhmi2hEJ6t8Lt4OBZDtUeUP9bDMfL9Lh6O1SFPFz+JHlGWtBorsB5Pj1rUHqgDNX0gnxGyFumNAHTODLkeaB2eTeQKaPROAMzxGrCR26PLKDOpO79mCWG6Kko0r3/vlk5/75Z+7G6JAX753dJ8PY4VOruMCnYewkY39iawnqc2AM8uo5p9RMCEZOYqdvG6ExZlZg8hfrqMSsMLHd3A2fuxMCzjAZUM9ZazBqub9W448rHLrslNQgPZIEHRzKsJf2aptma+8bv3Wb3oCRQBmwTxq7e4+pXx+ysCX+wMidS/wK2YyYxeZVoE8xF0RpenLPYkk6zxREpZCRabqeURMV95JTL3BkgqOycBUKbXukZYB4B93sPZjGUpWkkNKAyrA0a5zhKoSAHedsIyJtjjW7cOaZkTTF2avYMCgJ3c4nT8fG6nI7KmbLPE0vrzL7/XAfjw/ND87nx3d3mn3v6/fZjGV5dH7fjqfw==);lineShape=1;" vertex="1" parent="1">
          <mxGeometry x="444.5174941532516" y="333.3650478552105" width="33.33389425988344" height="22.19764610653783" as="geometry" />
        </mxCell>
        <mxCell id="r5jIDg_zJhUNZUnPyhJ6-43" value="" style="shape=stencil(fVbLchoxEPyavXZJ89Dj7Dj/4SrjQIWAC+Mk/ntra0vAiGVuYtnWjLp7ejXx08f25X0zUfg4n46/N/92r+ftxD8mot1huzntzm018fPET2/H0+bX6fh5eF1+v7/Mb86rP8e/8w7/F1xVJJlRFL6WJyIIy5OfC2C/O9wCKjIZgCYEcgFcDSAVaHIAghwMoASw01JJiLalGhD1MSBLb+ACSKj8GJAiiA0ghoAQHiMkQ4eeqksTC0qxAEF0KpAg2QpFkR1eY0aJBtB4KB5AEW1LiaAOr7GxaKXW0KVZPwMjWCG4uC0xIasBUEXNjg6KMAAE7FTQgmRbIkJyvJEJMY8VqsNSaboOh44I1RkIBtsKEiCONWoj0Q61RtToCHd180VqgTiINjBDDOQEdQ5RWgxYIUruxK3z2oSwp25ZFRzlUrP/MEEV4rhPqSfdDaA4vM7mHCokN2goI9mBKG0L59CxjnHcaMhOSzNA7wCe1C3KhhSIUCddpTvnJgSyMw+xp9bFe+SSeuc8IbC7f7IatOmpjsrpLgCox9r6/jQOT+Recl3kOCZGi0HPRc12llECOb4WBtlB8D89Kp3v6/vkeK7NTbWjzJ2y9cHUMeXLQGhbXO8bb7v9frmu3P4/3k/ao+Vuw8/f);lineShape=1;" vertex="1" parent="1">
          <mxGeometry x="470.8816183756269" y="331.98384110905124" width="3.600085564566178" height="3.9459030235983703" as="geometry" />
        </mxCell>
        <mxCell id="r5jIDg_zJhUNZUnPyhJ6-44" value="" style="shape=stencil(lVfLctswDPwaXTEgwQd4TtP/yEyc2lM3zjju6+8LVcPYhOTt9KbI2BBY7ALUJA/v+6e33RT5/XI+fd39PDxf9pN8mmI8vO5358PFniZ5nOTh5XTefTmfvr8+L3+/Pc2R89O304/5P/xacK1RiTMq8u/lTSXOf198XuKPh9fbeKYYhvjIFMp9gCbiOgKUmt4H1EohDwCppOE+oDRSHQCpUGMAiJTSAMiZaroPyKln3AEl9SQ3AUkpt5HVQAWklIzEkVaNpIBWSVR5ADRLCdQgQnFMqRXYOLFOj8polRroQzQS3QmNIijalJPUA1DjQiJNKwAoulGqPl5ACdZnV7J29W4nRKV6TgXEs/eCNQ3HRxcfexe3GaVYxngmESBsz6cq1QjqZSpOprW/2QaYxtgDAsjIKK2rEwSkFAtp9TVAXQdiGQGNMmiCOac6VgMJ6MLsTdc26RPn3gnNnZApA1qthjSyZN5EQrKpLs6bSor6ELtRbqyDZqR1uo7eCWxyR24OFFbzIgNeyyolG7MgpeiHsLkTbR5ekZqJgZI+yrtxZ8PuX8ejTUhpVEVtfR5sE6p+YhfbnMg7mWRctcU4AAATahhPyBGmZHtNR06TUAG6s83phGpuQqKYV/fIqukEzWzb/uKEWqEV7H7BI8AyArqu7DetsYbaHLt1PyogBuav2V+QApRpVa8jhuPLbh6uydwn5nZ87kv7Jh7wo837kuFSvrrqGt9APuZa9fwouiRop+/KP7JlW90qErYlr4yfqYCG/fed/J/x9nD9AHg5HI/L98Pt7/6DwV4tHxvy+Ac=);lineShape=1;" vertex="1" parent="1">
          <mxGeometry x="433.36511040123514" y="328.4383679383367" width="10.043763706889877" height="27.14516813622936" as="geometry" />
        </mxCell>
        <mxCell id="r5jIDg_zJhUNZUnPyhJ6-45" value="" style="shape=stencil(7VrLchs3EPwaXlF4P86O/R+qsmyxokguWU7sv3fDNNaLBrdZySkH3yhqm4N59wz2FN58frj7dH/y9vPry/Of9/+c378+nMIfJ+/PTw/3L+dXfDqFt6fw5sPzy/3Hl+cvT+8vf3+660/2T389/91/4esF56KprqO8/fbzm2Ks/fHNuwvg8fy0BwRT6gwIxiUBcMaGGWBNCseAOuRvz0eTyvHz2dQ4P99My+JAEO8YEJxU2dOJktQAJswkwZsWjwHemWD5SNZLQE4TAGZzWkKa3Rai8RoQZ7NGdwtgCdCklbw1sU2ABNcrP8CvcyTlbJzy9ObXAShRS6gmzzrUTasjT9fZrDWbJoIVkUNHatkEJcGaTPlmrcxQ/F5iCVEcKZg4P1+bccJvgVUucFs7fh65Mtu0BGPr8fPFlDJ7uQ4THFpoViDH8RNH+ZxJArJD1bzMgYdIjSKOENpUMVIaMq8DUEMpF4J0MqzaCACZwkoBVpp1iNpKqA9Uh0Mdpf86IBs/mzV4U0VnCIWt5JuJQmkASAdUPa9CtbJZEV1eKV1NzTMgm6yO1Ma/dwBVJqM1oSwAEUsou84zIIneAEC1rLQqk9Gb0NisVlgJgEp+aFqHwDogHKUOaLkEcKbdkDAXgRBkU+86zEoj4LNynDdlNmu3mwjvmJgpIX6rKJTol7GwDllYCTUiWraSalcJCTSHN1LUitDI1lQ6Uh5E4jogmEZH0lwJLbw51qEIK5WNPe6itSlAGlRqB1COKwhmspIdHPY6Yw2DVezM2oTjQBKoZSE0gtABLTnNOiD4nAjvBiNSuQcLEDq0wKwYDaWK0Gh+/N5OggoNANLSgRT1aYtZobSq3gBUspLVR4pLEWiSK4FK2QWgMq4V5nsABOWHjVnsdAgillobfX9H1FWpBICqN4qnitYd4dy5Ws18EEEcLiLlVDCBcs4ARN8NM1GOJjfmwCNHuJmGJhR0BUjDKDtAU0eKnHLJy6RGuObGOjgF8Hyk3jKUDp5HrFi0WT0PA+hiiqwDUJccVcHU6wzp4OT4ALOmJYMUcYXjaGICwAkO19YW1HR419E0dwCpdOMWBKWlHxqHxi9GdASgeQCOU1z6vwAczTSoPMpKaDizHzCXJQXwzBJz0l2xjv6xAezYvBz1XR6zkuwodemKyLgm8qEubL13ReHpUriQwdOKfGN65s6+Ef4jwlQ8S4iK9JWlBRUpAX6lmQaFLGtaSWwdpVI5LmVu1GgoReRDisZVVlpNr2lbAewcp0IDNmlLyypqzIqjBW6AONZ+R7MlTRwAKKU7N89sJS8SCAC7cAe1p+gSFnqvxt3fM/4G+D3j//9nfMeVrzMBlXGVc7qPWWrnFZkJYIgvCuCWuSyPEfv6ZrCO8XnXp6vaPaaxpdu6qJcTuPfLhjYNunK0h6dYylXONC7yYqNEvem3TOEwxKtLo426bEvvKHV2bgwLG0CXJRd4DY8TBbXGxhBGAC87FoxEKQ03OLX3jkyMU7kFoMgA+5GXgyvAya10P9KSoUHfn9AY58PYpVwH1KV4R7k5cZnJfb+RUJ72oy7utj9RXnDwfJKkCp55NMqe2iMu03q/EhI2tUzsb92Hjua3Pe8l2wtcVLMkJXmUhu34ej7kpam+HVvz0soKj3Dg8VNObog3Im1Nblhh6zRnAE4orxzbcgEf5dVvr76zQfslpDIRJND1dZZrBgBoa+CKvlBrnGMwW1ReqMxs8RNS6TLGtB1ATRgAhEVCVY7OPId1uylP53GtugOoW8T+lkFlK1UNoOLYzaC62r9+++M2AB9+vWzy4fz4eHlXZf9/fjkFX11ebAlvvwM=);lineShape=1;" vertex="1" parent="1">
          <mxGeometry x="481.23011703430575" y="337.66520001698154" width="64.33228555142547" height="35.04922279031391" as="geometry" />
        </mxCell>
        <mxCell id="r5jIDg_zJhUNZUnPyhJ6-46" value="" style="shape=stencil(fZbdcgIhDIWfZm8zQAg/17Z9j85U606tdqz9e/tmZ0c0uJ47xP0I5JwEBl59bp8/1kNwn6fj4W39M76ctgM/DCGM++36OJ50NPDjwKvN4bh+PR6+9i/z74/n6ctp9H74nlb4nbmSKZeJCu5vngmZ6jzzNAO7cX8FVKEsBuBKrgKg9oAE8gkCbLeUhEoEQKSUDZDLeWYRKIl8MEDRmHwfyBrBG6Amyu4+kDxxMoB3jhwgYu7TVAsVkFcWCs4CTBEoF4RctKeOxHIf8IXYpikHikAIf+MNUW94AGSSaoAoFIE3AlOyeWU+p2E5S9yfQZcQILVuQOwZdJNoS9Ls3wA5u2XZTIHECqeJ9kDpSaauRiNVcAY1QhdBzeLBli5WazpkSsBLV25uRaqWRyFawTQzRRIQYirJzq5atkBqLfouwqUxLBepthWb10vrWZY6UOAeyKCCtDV625mm9gmUC4Wc3VLJMMIE1BsA2FW9JraVlQB7n3c9oMKhCLEvIM1zBPZ25/umNQ1tVEC2G+fFCC8g398O2hNQuQlVu752DBfA+q0ptnqO5JFmeuIuo9DY7KjY71UxdJV4EntifPWorW++R/dC4t7V3DlIB5cHx2bc7eb3yvX//QNFp+bHDT/+Aw==);lineShape=1;" vertex="1" parent="1">
          <mxGeometry x="514.0399484695727" y="337.6021174185124" width="3.5942613631655496" height="3.5886432433519877" as="geometry" />
        </mxCell>
        <mxCell id="r5jIDg_zJhUNZUnPyhJ6-47" value="" style="shape=stencil(fZbdcgIhDIWfZm8zQAg/17Z9j85U606tdqz9e/tmZ0c0uJ47xP0I5JwEBl59bp8/1kNwn6fj4W39M76ctgM/DCGM++36OJ50NPDjwKvN4bh+PR6+9i/z74/n6ctp9H74nlb4nbmSKZeJCu5vngmZ6jzzNAO7cX8FVKEsBuBKrgKg9oAE8gkCbLeUhEoEQKSUDZDLeWYRKIl8MEDRmHwfyBrBG6Amyu4+kDxxMoB3jhwgYu7TVAsVkFcWCs4CTBEoF4RctKeOxHIf8IXYpikHikAIf+MNUW94AGSSaoAoFIE3AlOyeWU+p2E5S9yfQZcQILVuQOwZdJNoS9Ls3wA5u2XZTIHECqeJ9kDpSaauRiNVcAY1QhdBzeLBli5WazpkSsBLV25uRaqWRyFawTQzRRIQYirJzq5atkBqLfouwqUxLBepthWb10vrWZY6UOAeyKCCtDV625mm9gmUC4Wc3VLJMMIE1BsA2FW9JraVlQB7n3c9oMKhCLEvIM1zBPZ25/umNQ1tVEC2G+fFCC8g398O2hNQuQlVu752DBfA+q0ptnqO5JFmeuIuo9DY7KjY71UxdJV4EntifPWorW++R/dC4t7V3DlIB5cHx2bc7eb3yvX//QNFp+bHDT/+Aw==);lineShape=1;" vertex="1" parent="1">
          <mxGeometry x="506.0399766396447" y="335.75596826737046" width="3.5942613631657245" height="3.588643243352075" as="geometry" />
        </mxCell>
        <mxCell id="r5jIDg_zJhUNZUnPyhJ6-48" value="" style="shape=stencil(lVfLbttADPwaXQnucp/nNP2PAHFqo24cOO7r70tBWMekrEFzk6UdkzvkzHIneXjfP73tpsjvl/Pp++734fmyn+TLFOPhdb87Hy76NMnjJA8vp/Pu2/n08/V5+f32NK+cn36cfs3/8GfB9USBZ1Tkv8ubwFSXN18XwPHwegOofXy+AvQv6jagCJVkADFS6NuAnChXC6jU2zYgZSrZACRRy9sAqZSDAaRItQAAUykGkAMxYClmmr/dAjpFBAiULUulUAe0Rk2pGUBtMCXdQ7O0NqEsgNZCwW666ZsECtcodQ+oAbRGJLaFa3Xwdh+QRwJXQCNBzVcp2QidicEeSqMqFqBJgtZQQHMREt5DpWpZ6oUiaG/ddLGF6w3vIQ7Wr4BOAuow92b0gA4ElDPlsgKgCCr5VQTkGklTchEqNdSt2jnV08qgDtre4gBCHevB2UwPVJEvaZmsRFsftb/PElO23qrtHUCELN4EVEAB1WHFkkq0gJQKU2cPQL5U0jD3m5Q60kPxelCWEpZoEl8HwRLt1jW00hlYpQJ8L6kG8R6c82m3wghCdaVppDitQ1oJqKFKFx8hMMMDYka0TyGSHimrpAQAQvezgJplBwDViwvAcP0135tDMcH1wR2igRJgNfo54KOQ96clYtsX6pwM/j8IBdvbOtx0oM95DLBeLwX65JpSTRINfNL93KBVRNOVupjYCLorQR4TxlFwrQI8TGr0NinUwA7UgNgmpBkCV22r41DbClCq9uPUj2Wj7uPOZ6YI+FHzqdmtb2h99fkEON2q9TgZR1hgFbk7ddJo8/tNzStZ5uFmWwGcd5XBwNZ6toQ2ePQrQdUNF3CwnScJRyiPyfU+4LO3qv8A6MPHJe7lcDwud8Db7/7Sp6+WC6M8/gM=);lineShape=1;" vertex="1" parent="1">
          <mxGeometry x="558.644810011954" y="337.6918969084776" width="16.433190631087374" height="27.882456229784705" as="geometry" />
        </mxCell>
        <mxCell id="r5jIDg_zJhUNZUnPyhJ6-49" value="" style="shape=stencil(7VjLUtxADPyavarm/TgT8h9UsYStEJYC8vr7tLM1jiXbnXDLgZt3Pe0ZSa2WNId49XJ/83Q8BPfy+nz+fPx+un29P8QPhxBOj/fH59Mrng7x+hCv7s7Px0/P56+Pt5ffTzfTyunpy/nb9IUfF1yIEuKECu7n5Z8YJPrf/3y8AB5OjwuA7xKSAqQuORBAkVYUoEQpkQKcPlINEjIBZHH6SM2PQ24DcACnAD2KYzZEqUEDkiRHAcEAsvRGAPB61oDKd/DitVt7k1z3AV2q9mrvkojNTfxqfSfEKJKqWu+dE0csSNJWG5S+vz4OXi7WO3KgMHZfeJSFwEnXBvQihTjUSeg2xJ7Q1K3OE2niOPHGXj8yacc/RWdBLZJJnhXx+vwF60nWzGk+1udMCYQcyDrAKUkgDvWIj6Z0RN6xCAcbApAqEgrB5q5tgNgEwlGIoTN5LJVwCBZGkwVDCDbX5y5Nr+c5U9OQztmnQwa2kxgu1euhG4mpBADGpWAdi7Jb8Toib8iZuhsxmm1ow2vbRmepmhc5iSNhnryqj5TL+MR22LLEtAIQq0MdTJ4BkCeSbJPamR28VJJtSGenCwLqbCI2THrXNKAMyd8FmEoehyTvAboB+LHnntFFeyk2qUQi4VZnFKCKJ/mAdGzaSyBfYEUkWC4BwOpshMg1e6REAofXpleIaJmIl6bXxbqVUQMAo2KQncwqQ7elIf3FhjaoNrPV0YybnKi9lKHNRLqh7EaY8tyUbQO8pQZEwLPigAamrXZgbM2Su7UhMrbG4fWFl1ikkUDR2TiwFgPa240IpCFtezvkVYp2phpp9FALtlKZmQvmIh8Y+RCHpt06kYW4FZFuq4ISGL0hM8EeiVXRCeDfAoBWl2K9FMmRCrip4zClFEkg9Gqm0ZiEh3iphVFv5kLd6FiF1iFoo6f2iRiNMS1pABo0pq1gf9WBw2Tmicyg3nhN72m6ZNRIo4OfveRGSm0D3GheFnHovEOspoq2Ubn3RCBoG9B9sAEaHV7UR6puSNteW2x6xIoCwIfP92n1fVr9v6dVZ6dPjAWMEMEOPpVfOyVLCGQZ80+23y9z7d2WU1tzUMrZAOCdvTebeleW9s6mAEjO2hHkmGlHAq9qyOJiZr08avU2INkeDAA2AED/s1bTMNfqPa3zKwC7xPBttMoLAB1iVsSDDawyowdLZodCR2hQ1dTNUPkwGVdu7eLZDtHW/uj4qPfWW95/AODhz6Xy3enh4XInvXxvL6Hx1+UCO17/Ag==);lineShape=1;" vertex="1" parent="1">
          <mxGeometry x="578.8188371418958" y="344.7998369266296" width="23.53115864236158" height="23.67591681429548" as="geometry" />
        </mxCell>
        <mxCell id="r5jIDg_zJhUNZUnPyhJ6-50" value="" style="shape=stencil(nVnLchtHDPwaXlEzg3meHec/XGU5YkWRXLKS2H+fnjDDLLC7rUpuNOUm8Wg0GsuLfvj2+OnrwyWFb2+vL78+/Hn9/PZ40Z8uKV2fHx9er294ddGPF/3w5eX14ZfXl9+fP9/+/fXT/J/z1W8vf8xP+H7DxSi1TlQKP27v5Cyx/P3OzzfA0/XZAkIxgKJSMgVE+w01rXeOAUVas4Aqo50DUhB136DSSEgJSavNoax3jkPqkm1IudOQYpIefVkLKStyCMMCUGiWdJMQDEC71HEOUJVuq6RFUiCAIc0Bkmg6B+QqKXtAITmUKM1yKYMaJKSSZNiygnyDhIQ//xPxhkuRdHqSuRtA66IsB5Vgq9SHRNIHMMf1IYawenmMCNJtTGNIIPzWJi34mNiMotVq2deqtEhCytItoDYZnbfa5gAVKEQFypBqyVQ67RwCiDbpyRbCjaae3xnKQzoHJjQrG1qlkqR7kmDpmgAgnQag2rJCDCmg+ZAihpAk3avXmTSozvQi2U7QXBAspLpU5d4HTg3kMGwOFeJKqDGiJNu4VqjOdHyeDak1qsYYF7eCGghPyoqQou10S2sGjwFpUe0OiJLJxI0sNXlAIGwd1TcOgMbK2v1GwYQw6Rt3odv0oZERBaC7snZKbwCGE9dIlxwAblF31I3l0H2VQEc2QCjrsDsLZAmE3qP4eRhhrYxjgHo7MwGErSBfjbuQGCBIzD7pyAZoeHrPshK2YuIcW3ukDqvvtBXUYCsLIXl6F97psBsgFJqxNfnGzQEiIWFEndy/N6JFevaAzEKCbO1lhoUEs2HZOoWMz3Rz39Bopzfm5d7qsG6K069wAKVm4z8DsLPUkgkj0thWDP4gAL8bmSAUJXdf18LMRvEOq4bliI4BeSnjxs5kFlL27jvrYssZQG2r9Z2ks7dksDOJfQNWkM1hnpvMOwR/jQbuZoYvEnfSY3cOcF88djcTTkf6BXB8yddUmYw1L/a4D5RMD4jp7VVe7ua0CbbNtcggqgQjvTc/gbQZVr05ZR3LoZ3dTO7uw0AnfjOl7gGsrDie6w7AXCsAPmldVuIMkNxAxzVPx4D7LXxvXOT3NzTGUmMep6RKIHO3fYDzruyhQ1xn5EaUBhP7tOMSkmZl9cYbEbEFt9sludH9FnxNtdDLuPhNktrS5bOE1TIVH8ESiGPdOndAX2087kFdCW6OSnbnavQbGtPBDOh8CGNpgdObeTFE7KqE7RWIDKe0Ir5PW6KzEIsn3pQ1ZkB3D1lwcJGIdLeedTnY44C8zqNETIXTYv1mljt74rgUd/Ogi7ECcmgLmgOdA/UKrHDshBPZzzHEphOlKF5/QVKWb/UXur7jFHw9le+o7sdyDg1z2t4Qzvipq/VbdhaICB0ATulmBwhD4YScN0KL2f1y8KQeLCQ9/j+P9t8D4MW/vyR8uT493X6I2P7d//KAt26/WujHvwA=);lineShape=1;" vertex="1" parent="1">
          <mxGeometry x="607.6086154727454" y="340.28655815176387" width="38.78457755454554" height="23.15596209935393" as="geometry" />
        </mxCell>
        <mxCell id="r5jIDg_zJhUNZUnPyhJ6-51" value="" style="shape=stencil(lVbLctswDPwaXXdIgs9zmv5HZuLUnrp2xnH6+PtCo0o1KGszuckyVgSw2AUHeXjbP73uhuDerpfz992vw/N1P8iXIYTDab+7HK76NMjjIA8v58vu2+X8fnqefr8+jZHj04/zz/ELvydcgmsjKLg//15UlOnN1yn+eDjdxPsC7wwgFsS8DQgVqRqAZNS4DYgRkg0gBKSyDUgCZ1PyGYHUkCvE26KRyQHNIxQT7+YT78dHOLEJwZOKW0ay+UTkSuIrYrLfdwiJABqybanSGAhp3rm+p5pTYz1qiNHSrKwRErQI1wHaTMt9QEKzVeukRNZWgVjaxlENBOCQV7PdSJuq/t0BNElSdE3zJC8Aj0JSqoJqmZM0J3kfENDs7KkAAyFOAdU6gE53ZDUIiiXOy2wiW0WLPUENQGhXs21SmIncok1sQg6eyUfgpYtnBevgFRsvVDytoFrHUwaYXejcd3KOqEwJbR6yG4cUVnFbVaAtYkqos3YXgBoGA2SUzsLCLNctj+w8NWZkxoJHsjVEdRBGw2cBpSBZrcUGR4rOEcXKP0W6SDSBrkv6iUi6JGph9oSS4QhAB6Fz1arMUKfvxaDcN2YwvdhudsX9LvXLTaexsib19jIOI7GLlZp1Fh2J9/P9ZonXRUXWiEPp1Fzpsl3MZ4kXunVWm7Zoi2l8J5wiH+TT7FTr9ScRvlYTlJcL2Ub/u8WfPZXZZ2+cH8frw//r7cvheJxux7f/99dhfTVdpeXxLw==);lineShape=1;" vertex="1" parent="1">
          <mxGeometry x="632.7836344063671" y="343.5177334296079" width="21.888230457798446" height="7.838698074246902" as="geometry" />
        </mxCell>
        <mxCell id="r5jIDg_zJhUNZUnPyhJ6-52" value="" style="shape=stencil(lVfLbhsxDPwaXwmJlCjpnKb/ESBObdSNA8d9/X25XWi7otfT9ubHjERxhhS1k4f3w9Pbfsfh/Xo5f95/Pz5fDzv5sGM+vh72l+PVPu3kcScPL+fL/tPl/PX1ef7+9jQhp09fzt+mFX7MPC1U08Ti8HP+hYnr7x8+zvjT8XWFL4WEB3xkCnyfUIVYR0KhIoBQKZUxIiEBITWhUEdCo5gAQankgSCJCtrB1gsDIQVKYIcYAgXHUAoNbpHGmHIkBXlthdIoRC7EiGBZHENSpgZCqoXyuIPWvue2N1oXthOKUM33CdpIRqltCQ73CdMRR0JNJGCHZMI6QoP+lkA86tASRQVSczfnQlhOta1DT/oKX1HFUQoej2RLfbUVXsH6THoTTwAaRAouQRXiA0WHV6oQH0bFWqYcEb6OLjXBGOTH9BpNaoXBoJZTr/QFz5TA+kqNPT6C+JuvsgmPekukpp6QgcAx+V7UcEON+cZylgRUA9bbXI4yFeShTNWJYGnDZ6jRuw6W5c2lMDVx0LzirY9avya226NvRaumv928ekrWhQ8uQhNJPZ7RkW+MVPsKdwrHr2/dFRaat1GmBoxqV6RTIMFGFKm4eIQyiF9uGhdD00nf/R/x04FHz9mNGIAjxDw3urpyN8m920nHI0/jFdgh537FLwSGOVI79FiZdodHEFIJvVktBKECVC7V3+EWpKCBMPoGbKNRRiFZHY4hSYEdvmifOhaCtVRQaZbE5kZO7cpsp7X2iBdC7HPDPR3ctBZxh8zslVZKoDhtWvTzIyVwZMPH8QQJ3gnT+k4EEmALi99d+4ydLf3vJUH9GbCNT9RGF4U+6W3j1bf3AEszV6rN4QPIv8b+Clrhgb5mCPekCHAK0ey7r50XVJmagaPPJ8L/5zvw73j78OfR+XI8neY36/p//0i1n+YHrjz+Ag==);lineShape=1;" vertex="1" parent="1">
          <mxGeometry x="642.6672214960017" y="332.1056508064328" width="18.088892366456374" height="36.650530369033646" as="geometry" />
        </mxCell>
        <mxCell id="r5jIDg_zJhUNZUnPyhJ6-53" value="" style="shape=stencil(7VjbUlsxDPyavGp8t/VM2/9ghlAypYQBevv7bppxGulwNuWxnb6Fg9e2pNVK1iZfPd9dP243KTy/PO0/bb/tbl7uNvndJqXdw932afeCX5v8fpOvbvdP249P+y8PN8e/H68PKw+/Pu+/Hnb4fsRlyXoApfDj+KFFqenXlw/H9fe7h7P1MchIHtAYoEpfAKKuA1KU4gBBtBJAl1E8oOV1QC7SswdkYkNJEqoBVJVKrlRUugMMqX0dULuUZgFdYlsHtOKNrlXiWAd0hKlbQJpbvA7oM0wTAKuU2DBwJXtCyTOUrwNANRuHDHYRavQmar2UmkRyQq+SowVUSr5evNGpSCJc6nkBSFLZCUmy9VIC+Xjg+jCA2Cd/1wDFki+WucUqIFhAnEm7yiUbuCE9UpujXV9FGfXATGtypumGIDhRivw+RdTSIkgNlHehu/WBre+SqlufiL0j+8y5kDg6KTbXqyQSYAXprVhE7EDURYc0C8hJlLA6hpNHTsnfqGqrSltoKtMjhURaJ4GGLHE0SbdGDOQeCwO8aGmBL4XYMIYvVZrnma8Duk8EWBXZCXUS8wTQKWlrVGpOLQInK1TYJRuOoHcCmW0gtMlg6akSincTC0Qfkiy/4WllCja8X1GMWMYBUC37cMnGJENnW3QCVFrR4SW1RkPVKuNG8gnRUQ1JksLEoh7QiJdGmz45u1IglQR0dRkE5ezM6CHDxgGOZm5Fgrn+EwSOPEezbQFwSWUnDG8DdCETKcN+zaoA6E2vtKgOOrgKFMmLpGb1ENRw0ndQT5bTwfcM0BkWONDbtQBaaFuPuBZ3woUaOmandgpcnWRZA2Qn33g4sBR9K+BADXulWnjdBZkt+fAyyFy+XSOQ89xiLXDDtZODt2L/O9x/psMlvPjrO9zkO6XTY3FNhJ3iRTSghBIap//OaU08hBbEvSVLoJSAvjXLITzRK2/Fko1xqzzToKk2aK1fYl21AHQAgaQmLuDbnjRbrdfnEsO39WBWIZlWw5xCnACNSiQU1BkNbrEhQC5eIlG8mMyn7iPdlQrYcgIFwCDUWM64DicQLy2naJ333IsxHdYnNhObvelZH0bfbzKCX8/yOfpijqAF4qEw3XHWPbNKCzVx98lzVrSy3tM00pfbYn1TOgFc3AeZyfyzsBeZx7Ig+vLR8pwg/lm8Gn9cLPjQIi2Ybx0LX16PH79n0Le7+/vjCPv8/35mjU/HeXd+/xM=);lineShape=1;" vertex="1" parent="1">
          <mxGeometry x="390.5822448596491" y="366.7650193820856" width="41.4801342804951" height="15.970055145553838" as="geometry" />
        </mxCell>
        <mxCell id="r5jIDg_zJhUNZUnPyhJ6-54" value="" style="shape=stencil(7VjLUhtBDPwaX1UzkuZ1JuQ/qMIEVwimDOTx99HGtY6lXTfhkhO39Xp6ZyS11NJs5Or5/uZpu+H0/HLYf93+2N2+3G/k04Z593i/Pexe7Gkj1xu5utsftl8O+9fH2+Pvp5tp5fT0bf99+sLPI04rcZlQnH4d33Clnv+8+XwEPOwezwGJanIAFUrlMkCUut+hCrUKAImSOEC3HfQygAuN4QCDqQAbWKk2D7BDdgBgat7oUWkwACTiAOjwSLmRsAcMKsBLWYk9ICdzXAKITKnFLVCoO6Ue1yewvpAGmxtVEDdZ+KhQa8CAyLwhVEAQjKmBFuYBuL6o510nRTGjHNaXmeoXvp/8+WunjFgX/V8qNXB+peHPo5jVRojmHWQhRJmZB40cODen3nqEG2UPwBQt5nBvcobrm0QLOglY31ukqJnUAEUtzdXXIuGZJesuSosoa6EKWDSR2G9RE2VAI3NS94Bme4IoFKHqS0Ud0AjtNAJTcSabiTnUeKUCjqRWUHs0uiHZ4Tl1z5JBQagNMKoH8EzGSzYUz1XFZNJB4m2wTwioX0Upe7aadCJqlEHKEcCgAkxe99SwEsACABZprwnWECBqNJ59cgKcisI6wIwOcRBYMwwgvowZ4QUfKTYYDHXB2N9DPtRZGtcBRo3A1k4VpKiROQLGTMf1SBtzJAJQ7S4pks+OpEgcrNHzcTCroJpIrJXmVuQlXepVg3poAF1QAzVJRuayIJ+iMtNW6I3yoZyYc5ZAqLs1E0MraX7LqBgboL4HUBeBE6MG2qHGvspUEaWoZmJvwzQDAPJNLX2IQ5qFeL2TGXMDf65xIB+mlt7ndOtQUD5mgH+eARY9/ccM8P9mgIWStDe+n2PvZmqIUi33yGvpsDu0EDRvghmFhIEX2Z8xTa2ahDqfT1VzHdDntugEqJQBQCwMXj5zmQOzDhDq3kuWS5CnNRJpAqDRZyxGDdN4XIV7jUYrarplMY31+ebkUoervqhOAx0oeSaWEgZEhhOrAYK48UmyL3Yl77t+ehtgD39vu+52Dw/Hy7Lz/+PtmL063qzJ9W8=);lineShape=1;" vertex="1" parent="1">
          <mxGeometry x="447.3473231459652" y="373.8689809436563" width="14.139276601288726" height="17.048198275685117" as="geometry" />
        </mxCell>
        <mxCell id="r5jIDg_zJhUNZUnPyhJ6-55" value="" style="shape=stencil(rVfZbttADPwavRK7yz2f0/Q/AsSphbp24LjX35eqsqpJSVMU6Jssc7i8Zrga+OHt+PR6GIJ7u10vnw/fx+fbceAPQwjj+Xi4jjd5Gvhx4IeXy/Xw6Xr5en6ef78+TZbT05fLt8nDjxnXGnGdUMH9nN9Uivz7xcfZ/jSe7+xroRKVfYjkMwA4SkEBOFIAJ5RA7BQgYkBm4qwASUIK+wD5OyUFEBcp7gNiJtcUQIL0dR/A1Z5QGlWQA3tifYIUGpU1BAoa0DLltg/wEoDuQ6u9btuAbBsns5I8AAQqOmnvHDkHZoOasycUkEMiLjaFBvyHVQaFIhgMR9n4TzDjJbvFnmFJhQqaa81TAP6DHezaKICxS+Q1Nye2Im5SZm2f+5DsdTgWC0h4hkKxETk0Q42y14BKHpVIiJhsjd7HcBvAlINtAiqSAKqZCqYG1EJCqqbNoh8I4CxxZE4rKmvpVL8jjkfkjz2AO0BDfXBdfe4BIIdMsVr799ZvC96KyoUasPereDJUYKGmiSd2Dd+xD6YFHheIsqFa613/P/Z+xX1RJzQTzWZcuLN1e+qKBeQMS8SJiuZmwmMqezvrokZRHKRfsoa1oHKDApl997fcRvAGyVIlPXdT50EORTa51sjYPWzbty4mywFU0H3KW/+SElqZTEXLl8P+RYGtPVIKkVsjXniFC03MTUf8g/pMNMw2fuR/tUGWA7ftq/Uf+lLftpf7r65PxPmKDOr6JIqIlm51SchQ6P71Qv53e3n4c/t/GU+n+ePh/n/7tSCv5i8NfvwF);lineShape=1;" vertex="1" parent="1">
          <mxGeometry x="439.3206419873727" y="364.7687973681442" width="13.893985587473113" height="24.70890671732202" as="geometry" />
        </mxCell>
        <mxCell id="r5jIDg_zJhUNZUnPyhJ6-56" value="" style="shape=stencil(lVfZctswDPwavWJIgBee0/Q/MhOn9tSNM47T4+8LV0PZoOzt5E2WuSJx7GI5ycP79ultM3F4Px0P3ze/ds+n7SRfJubd63Zz3J3saZLHSR5eDsfNt+Ph4/V5/v32dF55fvpx+Hn+wu8Zp1TqGcThz/wiUGr/Xnydl+93r1fLmSmoW1+oyv31Yn8ntz42SvU+INURIJmS3gfkRNlHkDPVAACFSnGAmqhEuIMGB2iNtIAYhFr2QYdAAZxJUk/KsoXCICRSEx+EUM0AIFRkTFMAeRWl5KOWRpFB1ErB55UTBXCkEqhFn6bUE3cTUCMlv4OSgOZrTDJUmjTdX69GBh8yLzHdBFyVdUlSIgH80eXEC8A2RWeqI0FTIgYE0kyxeUClBlpJuZd1ASgsg3V/84AciAGBWqYy7NDwDkzNFy7lzsHbgDAeKUUqoA7V6OUBplQFdLcBik+rUZBBb9iRildKk8qIgy5eNdhIDlrD0iq+NUxbK2gNK1wexLjCGDSuhKzC8aCpE2wBLDJyr73TkCXuqnCPQOwJZKQWxAclHQrHlIHw6WokiskGkBltJEPzcVfn24BCYaBogYVTWXHadAT1kgW9pigIupWx+WwHNHabjRsv3iYzAXVrHOeJjUkGrWGM06EOrev5JwCID3EkUAqQcZX7UL6qdAYx2Igbp26AQWeh7JXPPsHgSFamuDICATmy1kNcdigYkImHXuI+h297xLZyDqa2aIzWbqeu5m4GMmOO0Idwdhqg0NK3vxIZBSJjvmHwAbFn+XYAFFcmFwlAGH1JxKNh5TKiUQev93IRMftDF8SLT0rg87H3/MICaujO0LVtySZ0qmagBldIEdS2dI95ucAwSL15ofG+g4z5J69H/11uD5eb2Mtuv58vctf/jzc3ezXf+uTxLw==);lineShape=1;" vertex="1" parent="1">
          <mxGeometry x="469.68792138568597" y="381.8559450640745" width="22.29560168042396" height="13.752396382915846" as="geometry" />
        </mxCell>
        <mxCell id="r5jIDg_zJhUNZUnPyhJ6-57" value="" style="shape=stencil(lVrbUh03EPwaXlWSRtdnx/kPVxkHKsS4MM7l79MKpc2qxfYpv8FhG2luPT2z584+fH/49O3+Lvrvry/Pv9//9fj59eHOfrmL8fHrw/3L4yt+urOPd/bhy/PL/W8vzz++fn77/dun8eT46Y/nP8d/+PsNF12qAxT9P28flOaS/ffJr2/PPz1+PT1fnO/8fPDXzwfvIh1QnBUBSC4QwFxTgOI6Xcm7WgUA/6/zCTUKQHStLYAaXFQAcyGtgKpPyK7YAmjR1S4A3dX1Si25lK8B0VxajW42I/M+oDkfVxu6ayLSFp2tgavJFWGDFVdWG0buCS8l79Lq1hKciROSOZ8XQIaXmgAkV9c4JB24lJ332wkiW3GlRuntXRduTYVzKUdZoam5shqdogvC6OznnyfAvCvCBgDaeiWko08SUNdcCl5fCSSwxiGg4kSks/EJYLairhRdr2x0FQUEQCQv9RnK9wHB1bDGoTsLEkAFlJvLIvkAiOsJpc5LXp6wZitKtCmjg8tEM5r5Rm4SzXQX1AmFaQbM11Wk+4zryYYsAOAIbnFdpkbB/6OKQ6RVTywul61EhZfQPgKVqI40TIyrl1AhTUS6ZlfXSKPHqZpGg7I1cDW6LIxGN7DVBnyilADiSnSPDpRFPbQyS/4EUNw6Um2tB2SrovuOMK0A+K0IG7pNnxwAL8VJB5GtgUOPU4EDgHgJNZ2El3rhDoR0lDbUTcKVmfDvAxp3oEEzCoBuYGx0UTb0mZsnt6p6AKCTIoNeUnEAgLI1z2S5AmRSM1WyN7xEqnLUg/JSdX01ukHfqMCVKRROgC46UM+uBQYoZYzkI8DQfMqGxMlXm1SV/ajgA4AqFzQDQCSAua5Sw7aaDrI/9H0c6LOJXRldthJV/QFxIEWGilPqHpEmGQqAJLI6pfkJIL3Uptg5lahXJ/R5gZOXpNGouC0OqrEH77dkSs70EeQmJNMNnqnppwCZO/voMYpnkGurDYPQRSDQ5GgeQCyrMBptNHoGKDkD3mqZr6TUOrxOfN+qLOpRYBSHJqlvCLCtK3ql4Y6lxEmSqQrClUpngAkbysb3oysK4Yqap0aNFuRFpMs2yCEySmGVPQ6YZ0XylTj/fADaTJYrLd3XE6CIqhogMqvEUVLqBM+S7FTm74+vyLXMd1JDDQbktO1OFJWlo+OctYCI3D6CI/jShsI1mutsMlcA2wYCFTkAaAqy5kwZXVmTxTbn0ytA3oZ8NStiuqVlS9HDaOQhSCcGJkXSS10uf3LldhJvLB3KlJAHQHcHAGz1qZleOmSOWvKSZDDl8S6n6noznpnyzQm/kHIIMxcv84IEWdD7KJvd5sR7qv/AJ5RI6NJK51rlpQM0YhBXsrKtBEwupXGCrepnhFLkEqqxrR0uVV09kPK0efRy3oBbab1khy692guS9Ea2qrkvh42UvDQ6B95SgBPklfrcWZ82Xjeom/ZRg4nVujWyl8D1aumw75gxAqkStczLUEg6NbvC65Garpfix45Z+ACY9FKsPMYNHSvqISZ+hTI0pfASWkEiEarlVdj2IOMEJaT5lQtUgNpqVG4mLeuF8abeiiTWXQI0STGbisnH7HFhb1r9g2LqIu3GO6m1mocOUoDCijhlua8b7ZhOqHI/Md4lks1Rn2Dce1D+6o3R2Olvg3TUeUqzD5qVeokVMg/SVZfOeC9BYrLK1wJlsvqJX6Kgi8hhu8FH0L6Vn5d5wXN9PbZ37z7vt0Vak31qI6+xRxP38SydUZhB5IRnXYvxVb1P25cMNgXNxfNEXBjz1PLTb3v0cMOfddurdEHugV9D4XmlagPzRDneD17kz899IeD28/jh/28ffHl8enr78sL57/xtBXz09k0H+/gv);lineShape=1;" vertex="1" parent="1">
          <mxGeometry x="494.90571658718704" y="371.38173654770424" width="65.69853919363909" height="30.57651535643747" as="geometry" />
        </mxCell>
        <mxCell id="r5jIDg_zJhUNZUnPyhJ6-58" value="" style="shape=stencil(jVZJcuMwDHyNrl0gwQU8Z/lHquKMVePYKceZ5fdDjoqKIVlIbpSIJgl0o8mB7973T2+7wdP75Xz6ufs9Pl/2A98P3o/H/e48Xupo4IeB715O592P8+nj+Dx9vz21yDZ6Pf1qK/yZcMmBQkN5+jv9IRD9//E4xR/G41V8ZkRS8R6hbMdLQIoqviC77fjCYNbrE8TYoAiSBnCApG2AoznDjogEl40tMrwoQIrwVhKEnBUgC4JRVXFwukoiYONIqSB4XdYAMgAxQdwSUIwjhTVxNSvZBtSye11W8XC8DfAJMemyFoixQ5Va1FTH2Jn5JoC/2KEeSRPn6w6G+lrSuqyOe0NtllUnHUxlNN50CmSm3ISh46u0vK28BQkQI/5TBPP6Cdnqz9wLOJe0oBiAG/0ZIsgQ0toCEnUX+abJ5AA2Grq5mHZJiQgGDdUmg866eCQj6+bD+kglwllEr4z7C0B03eRmQAEZRwq0lN4VNbe7gZA0c5V9MVypipNWZRKDCFen45IIy2QSWMs714Y2TuS6NmcpMcRIeX2XOLDBAi2vTxbkaJQUYWFIqYv9tlKRF5xFZKOf63RZ3G1IFmOhd/vWe6EOPh8bL+PhML1VrueXj5P6a3rY8MM/);lineShape=1;" vertex="1" parent="1">
          <mxGeometry x="550.3121908884366" y="375.25136759154964" width="3.904513668522108" height="3.2015063418713487" as="geometry" />
        </mxCell>
        <mxCell id="r5jIDg_zJhUNZUnPyhJ6-59" value="" style="shape=stencil(lVfZctswDPwav2JIgAf4nKb/kZk4jaeunXGSHn9fqB6qIhRtkjdZ5opc7OLgTm6eH++e9jsOzy+X8/f9r8P9y+NOvuyYD6fH/eXwYk87ud3JzcP5sv92Ob+e7q+/n+6mldPTj/PP6Qu/r7iUKcqE4vDn+iYmCvnfm69XwPFwWgAkUykDgJkqA0Cg0kaAUivbAM7U4gCwPdEOHKnUAZCEgmwDYqXCAyAHag0AmFIYACVTAkeKkfIY1pqoIUCjMJJWO1KAYY2jDmphAKSl9r8XO5S4DTBrqOOgFHQbkI1i8qRD3QaURJzHsCploEMVv0NhisCtKsSjNeyQGYS1mZmdlzIFIFybKc4AewPs3TLl0Xzm1go4tEJttUMEwjX1YZ2yHJFuK0DpGbIFUAfQzmoL0MYiYBmHlDaAKzOZoVuNdBtT1JQW4NZWvdLZygzaofgikO0NUnqVDwbISGnxVcOO1EACmVtFPOmKwhopjcJloYiEixQc6UgxYcBYyFKDRWA60miNVLFbjbQDZKyD+HJvCSSIdO7tY5miyEtlxUF6E9syn08gEw6RnnvmIkVhWFv/3iKsCqIUQ/BSm3KKc9Q1CPMG6uxTnXFmkv6JLdZRfULIpwFAalWfQaUQAw7WA31nz7AaW0sr45GUKQPlsvrSp40SatSrHazyoEomrY94M8DCgIcNHv09aQ8SwmZC56WFvd62X+oz3vJMSDlK1ZNWQDp0hot5Cbl7lQ1mDFQpbXdX7AOMqfqxOEXYc6OQjKIJU0NT7ipCjG3B0r83i1ahU3k1BsRACjiIrnaAGqfQO0FfH3r/enu9fa669ch0ib0I76wXP4q9c5717YoEZfJssVkyODDYenVdAU7o1gL8vADrr613fa32UvPB77deLTfPP8bTLk4MHLcOkF3NUNZ/+n77AYA9/L9OPxyOx+ttfPm/v37bq+vVXW7/Ag==);lineShape=1;" vertex="1" parent="1">
          <mxGeometry x="557.2405886811823" y="381.3057608503656" width="29.96047067675083" height="21.130755333128246" as="geometry" />
        </mxCell>
        <mxCell id="r5jIDg_zJhUNZUnPyhJ6-60" value="" style="shape=stencil(lVfZctswDPwavWJAgiTI5zT9j8zEqT117Yzj9Pj7QlWlipC9nbzpwIrAYnFokIe3/dPrboj8dr2cv+5+HJ6v+0E+DTEeTvvd5XC1q0EeB3l4OV92Xy7n99PzdP/6NFqOV9/O38cv/JxwlYllREX+NT0ppO3Pg8+T/fFwWtkXe507+1BpvL0HyI1a6gCxkiCAUuEOIJkkAUCipB0gCWUBAKEUOkAOlBUCWk+SRfX3E7cBhbiPwXjLDGiNlGoH0EoJxKAGiB2gZorAJbWgWw9QYpCHKsTJA0q+D2iBggNUqkBLrXhpNKYCYmiNqgNEKoAlA2QHSKRAS+YS9/K2J4pYaqSlB5i8gZZqIOnFNzoJpKHB10NgnuV1W0yGSP6Iikou+gqyIFq9D0h5Q5NSLgDAFBxNGfIqdUOTzFHdBlgieppMjxnINSUKfclZLguIwZpEdIBKAaS6MMWeJaugCGLQDUvVSgS4pG1O0+oEqL46h7iKIYE8WJp8HrD4TGpRfB4aCHql5lWRMmo0Oid2VaSMGk2k4HxSqoimdKNIAzhBE7UNoIFWVgwQNwCQ6g8DrPc68dkXAKubHmATA3HE8+nLiLN5AiLeZHmcoaB3M0n/fau/AJQa/VBPEY/czZqRKIJ4Q5jH5bLIlHktuA1QX2shUwMnWMpcV7XNBkQgm3YhkCGReX4vDlEDoh57sDh7Rk1+syYx9D+b/8HZM1r0bIeK3h4vVVqdfUS7bfXbAlMFU3BcqTyfCipMl+6/KGiu0XvdvfT+28gC8douX9yaSgnw+dHd///2dvHvR+PlcDxO/ynr9/7HxB5NPzXy+Bs=);lineShape=1;" vertex="1" parent="1">
          <mxGeometry x="590.6024061153673" y="368.42216475974476" width="5.979834621095611" height="28.303770138965703" as="geometry" />
        </mxCell>
        <mxCell id="r5jIDg_zJhUNZUnPyhJ6-61" value="" style="shape=stencil(lVfLctswDPwaXTEkSILgOU3/IzNxak1dO+M4ffx94WqkGpS1mdwUBkvisVjAQ3p42z+97gYOb5fz6fvu1/h82Q/py8A8Hve783ixryE9Dunh5XTefTuf3o/P09+vT1fL69eP08/rDb8nXCVuVxCHP9NBZKr87+TrZH8Yjzf2sVIJHtAoyzaAhaoHMFMCL+RIJXtAoAReKIHYA8zJWgFASbugM4xBhFr1gEACABqpsY+BKrBvTE2cfaAQgH3py8akGdhXSsXZN1Lkj1KLqxokALD7PCAlisij1kecZT7ZAnQhiLmEXlAKyQFqJFUAEIr+BbUXAI9a6nmkea77fYBR22dJC4UCeNR6aptLiEha5zItQTPlBgClp7ZEioB6Bkg+hlxJMSD7XjBqoEqrEKsnX8RZWhy4ac8cYVrVZynNpd9qz7hqT2Sfqfj7I/THmFd9TiusgVE7e6ZGmV/cap7S6YXOsnxf5sMiQEuZGbdbI/FULTI34FYQnc6LwsFgWVJPpFqpIZcyiee2JqwAFqIP2shbUOE+CzAHUtfQliUQtNReJ01EGmjo0qh67lkaGqiDjU/17WbTooIXbEDXfhriccWlH4dWfAENZHQOsgoCjfR5/C1pVdgQeVU3mVXqfgQrpWdicH/sl55qogYyZKrua2C9IKAGtvJ4wbBhGIE/q24uJqmAp3abL7EVXUH+w7w03mg8g9aMJN1+UUiA/9zn54OtM1Ps7AtU1NILsK3BCvLz2bX5Y3v7+L+jv4yHw7Ti3/6/3+ntaPo9kB7/Ag==);lineShape=1;" vertex="1" parent="1">
          <mxGeometry x="588.5032300563832" y="381.9846747618775" width="24.94317974766143" height="4.296042363005374" as="geometry" />
        </mxCell>
        <mxCell id="r5jIDg_zJhUNZUnPyhJ6-62" value="" style="shape=stencil(lVfLctswDPwaXTEkwec5Tf8jM3FqT1074zh9/H2haugaoLRtbhLJJYglFgAnfnjbP73upuDerpfz192Pw/N1P/GnKYTDab+7HK7yNfHjxA8v58vuy+X8fnpe/l+f5pXz17fz93mHnwuuVfJtRgX3axnJ5NKfgc/L+uPhdLe+Mvmq1num7LYBJVLOGtAoxG1ATlSCAoREFRwpZYoawEyubANioeYUIDoqwIJMx6IBlarfBnAk1qzKIRuwwI5Y05pjt7kKCJWyV4Di+01uAvQ9lNyJXj9SoKRprXIkcHHJkWcNEJvgSCVR1rTW1mlYDz5PnC2gMABkYm2huc7bKkCmvQF4aggQBgtMCehBACVqQKIA7kEOEDStLVNFLFVyOjRE5Ax8EE1HA2id6PWLK52TO0AD91ACeTcAUBLIlIoFROBD9sORKoylVHvauqO1AadTIWcACdIqgDCGBtBDakMsiVcAkHmg1XVJrQMkNEYBAUDhrq//lGhpQ9aQEVRQYs+kdz4EcA+ynxtYQnlJpqtRXIDJWKarUZwUMWyhDRJlABAfQtKAQhXcQ0324kQPDkm0DbTKCK7TTvvgnesRv4mIH0JwIp+t2yi7+sHELCFAbLDrK25nnNW0FMUIFCc11lRdaQ1A4hP5aIdFsgEwVG2uT1IcgNyEoKANxAwFLR6YvoErlJt0JiZUZcSjvuGWUW79m5Q84HNsXVy3OEqwM5E82UwY9d5mK1CjNiBhAvafY0Bz5GHHWio17bFkYbC/tDEtmvUwKJLtubHMpAGIw3qcvnIy61Fhk2xocry0z0A0c2F1hk/U20rlNn1hoID2b7ZIMeyo7tLUTTWwd557D03oLZFtOfChR9W/18vH3xfcy+F4XB6A9/P2xSdDy2uRH38D);lineShape=1;" vertex="1" parent="1">
          <mxGeometry x="617.2749969746089" y="373.47805736811677" width="10.628938555878099" height="35.93322346635432" as="geometry" />
        </mxCell>
        <mxCell id="r5jIDg_zJhUNZUnPyhJ6-63" value="" style="shape=stencil(7VjLbhsxDPwaXwlJpF7nNP2PAHEao2kcOOnr78utoY3JtWeT3grktt7VWOJjhhQ3fPV8f/O03aTw/HLYf93+3N2+3G/40yal3eP99rB70acNX2/46m5/2H457L8/3h5/P91MK6enb/sf0z/8OuJSpM4TKoXfxzcxUMh/33w+Ah52jxbQkgGkQIwBkg2AE4UAAaUagASq6T2ArICIAcEASqRQ3wOokSI+Ui0G0AJFbLRza6vEjI9k3dqFBBud7JF6poYAYRxgBlSKABAb9WgBjZIAQKXQLaBTBEZHoV49oCJAotJcegeYfZr+LH6LDrZoI64n6zNYXyg07yQUhjmqJ1FoIPWYonNRoYJS1dNT0yIhLoyv83qmVi6vD5Stf1qGAjOHZ6aaZh38/2DjVSoJSgli6/9cYLyYxNJGMmXgn0zdEpkzMUi47s+fMC0jU3IpXSkBhyot2UZ4knhEfDXQmiBQHScDbUoESsCj6nCndZiSNXuKzT4+z0jVIWewQJVQBgZX0wRacCIic5SVpyjKKtdW6oSH+J03ulK1RkihCnbQmuejVojBDtP/2UTSzEaVXE/sAUwFuEm0qNkKom8QN/VzdL1CG4p/cQcXhzL05qINjp4a6hUvuR0S5n8YJs6ASBnQLYsPnAIgfxrl7AEVSGRJvs4yD9U5D1C+VO+ljgCaarZKMRYlBWQre9xHwp8H5IUOJ1gXCo/PMwCTOndqjqIZHimrDDlAGZE5D9BsrQsAsEEq9UXxqYgPsuidBVZzdaIrDvomoXZkzs2TwDXEOKW8i3QdyXLpSE6+p+RDFM1UXPLxaLLOA+Yu85RAAJB5oUsRdra5js+nIoDU+72AqrrkOB0gp/XGwlbItLVhYLSqhjM6FigzU3q7ziQNlp+Pg/baVvkiFjI10d1WtXVAFUi7bcdp7dfh5ZP9Djw7+uLFzQZOOV2A0WlRpzX2EVA0ds8H7XATCNx0cbMiMCUL8lLwct9kkPbj8vlx+bRR+J8un+zLYauw65bRtLxxbLPwz8pcaLF+ZfAkPh9WJluL9SujMxntxxtnc0LRySke/onPt5Xp4uL8DVccn/4V1pviNaWQAOfX0fK+XjsLvMj7QgC7lriYvMqQi0vy43y5sr54LmasPW1k4tvM1bLk1A17UzPFCTQO1nKqi3PhXybZawB9eB2c3+0eHo5z99PvftCur45Der7+Aw==);lineShape=1;" vertex="1" parent="1">
          <mxGeometry x="640.2273080138773" y="387.48009670494594" width="17.085309111674423" height="28.186582671032212" as="geometry" />
        </mxCell>
        <mxCell id="r5jIDg_zJhUNZUnPyhJ6-64" value="" style="shape=stencil(7VnLbhw3EPyavRJ8P86O8x8GLEeLKJIhy0n8967JgtSwqKmBjRx9W41YM+xHdVeTl/Duy/2Hz3cXb7+8PD/9effP9ePL/SX8dvH++nh/93x9wa9LeH8J7z49Pd/98fz09fHj7e/PH7aV26+/nv7e3vDvDeesqWFDefvt9iQ748t/T36/AR6ujzMg5wlQrElWAJwJbQY0DQgm+glQk2lRAKLJsw2lmKC+kI1vbIOrApBMdLOXonFZGk1uTdUUZQOcGGeAMyUIQDE+TYDYTBOB89nY2eiYpVsDvD7bEINx6RgQk0llBlhT/DEgxf7vAYDfBCB7YwlQTROBQ5j8nK2pmSDcmmHi/IXcut/eBtjuk13yKQKlZMqcSzUYK+IAE/3sVvAhCS9tYZqNrt44JwDeVOK0lwTCljJ5qfSycBRp+gIiE8UXEGlyKxwdVKSRCPOW4GgVuBI7IUcuoWoIt6JslZkPIUu31pHMHeDxCmE0EiHOFPXBeAWIJs1uRWlrIr0BKPMXqkxWrKdKmc82FMmpsophfZvJEEwQXEDm5zp7SIcgM9mcXl+45lmZprUxN22vUG+ub0v3xHrx/oaC52i9Kl8tcFdw+v2x8/x1fRM8bqm77zVeTuQP1lOhQMaKFoL1lRptd8CRvW3OB4gB1RAAcEQxZJCOQCDWO1mu29L60QUVJwGgHEXrdxrQ5qSDZpNe8ibOXoLe8SrMYRFI1Vi1JeQR9ShUDhWHzJoNVimmgTmUqZujValovZqPLSGXhNEAUO3abNBkdvOW0GeTigOkNX3BdblxFDhqOdX2/D2KQyQp3KSiQhyoz+ILMr3LIl+sjENDY07sJWl048aMvliU2LajiO4VknLT6MMDULrCPzKiUn43TYjSNzDS1Z4Rgio9suWEcsTRLb10FciWt1SUl0YZ2hktk8n2HQ9APWufNFeBo1npkdblwY6jVQmMxhpsU9uqA1nuQOBoUvntuyLaESIqQDCVJobWs+uoKabKgKZqZel1a7clWZgqfwFGZ+UljPCB3SoLU+NGvUk/ZfRPANxM0c0NJ210tmFXSI7UYSKOjrnmSK6SoMeTovU2H2XoARdup7EHrb1qAPUgiIeoAL4rtp08kRrdczWGAFJloy4CKGiVCwAZDVncRLpiS5FkcZCz3q+559fc87/PPaon/Ojck1l6Oi/74NZD6KSg6qkkMmWwJVnhPZsQgiwsm/ogztjeGd9OusptLZZOoyPWkIDZzqFUWrt+xrQ7dVLitiynsDlJrZorH3kWrwGjnO8Pt8WW0nLkCUAScYiLVMWWvCBzsjxO5iy1bRqj3f4wTx15lq4+RuCCjAMyh+bPNBj49uG25fROWtuiAHFHCFIiuUU9IzUUHxY5kr0JIruXoSd5eTyfWDrHbIIyIPQ7kQEYReTIRWm5koiixvhF2KYs+emrsXTykaXaQc2iuQ1kUIoNdd2S7Cyy0rvMVWzrLUpacOVGabbq3sYU2lCVTgXX6PDf6sswPiY5u89bDuZPLgwX3lg51zoezVOV05FfmF9kF1n0L9Yr6RJZ6SBHo6QZ1bqUJS0zX5qdrC+Lf/R+Kufnib3NZPcj/nR2cZAO2HaDvDRZdeT0M3fUZwD8eL0S/3R9eLjdqO//z1foeHS7fg/vvwM=);lineShape=1;" vertex="1" parent="1">
          <mxGeometry x="663.7719424017891" y="369.9061695364976" width="34.438938429815465" height="32.30304426168021" as="geometry" />
        </mxCell>
        <mxCell id="r5jIDg_zJhUNZUnPyhJ6-65" value="" style="shape=stencil(rVbbbtswDP0avxKSqAv53HX/EaBpYyxNijTb2r8vDUNeydgsCgzog6vwUKTO4ZEGvHs97F72Qwqv18v51/7v+HA9DPhjSGk8HfaX8SpfA94PePd4vuyfLuffp4f5/5fdFDl9PZ//TBneZhyBIKa/8D4vlAw0r/yc44/j6VN8qpCDAmRJwduAXACjAiAB4TagBmBSACkSHQAliLqHDOxURFJRUfERkpefgLOKDxDCdjwnKNHkz05+LlBZcwBITjxBrDr/FxswVN1AXFraAlgKGkR/B1MSFojFATRImoOcfECGbACtK3EdECE0faoB0GmaJF+2gOrwQAism5ZR8IijG2VndHdo1GdxOdYGoTqABk1LL7Gr7Qmgj1XE6olbSmIzPOhPT4So1V2heTRk60gJUnRpa2imMzrxogsz/cJyc4XXtOEhkJf/RkbcG9oanaR1GqtrdzEs9rOcUAZ0DE+2KGY6U1/Z6oE1Z7g4wpaFZd2E2D79T0AV1egeWukWsn7vsHWYSVlO08IT6ZJEKtFRqrgu6R0mo/Wk1F16YTr4N4kMe7YbBEd7uV+sS3zt473eMrCJR0DniKJtgLhXuBof7CgIBcGR9o2wxW2qMzuhXxlLPLrXVLAM1wbkDM7Nw6JKfkekaM+/MKDDbwHWbl1qv+XWve6bj7Wv4+Xj38vwcTwe54fl59/tS1KW5lco3n8A);lineShape=1;" vertex="1" parent="1">
          <mxGeometry x="688.7679912657854" y="375.99170067789225" width="16.75621315719809" height="7.387624011578981" as="geometry" />
        </mxCell>
        <mxCell id="r5jIDg_zJhUNZUnPyhJ6-66" value="" style="shape=stencil(lVfbchoxDP0aXjXyVfZzmv5HZkIKUwoZQm9/X9Edw1rePS1vZHOOreuRvAlPH7uX9+3G88flfPq6/bl/vew24dPG+/1xtz3vL/prE5434entdN5+OZ++H1+nv99frsjrr2+nH9cTfk28UsjxleX59/TFk89/P3ye8If9cYavnmLu8C62L8uERK4n+EypAEIm6S0KkQoDgroQO0KMFBIgVOtziu2INUKWjpADJeR0pVo7gvh25yLBMRP3Nkml5KDXpb+iJBJEyBT6GypTRolwNtVVE+HXCSVQ6BNRBWZOArnUEyqFsE7IjpJYQgVOx0q+N2kW6UVGSFSyvQJ57ZkiW4Kv6wS9oFg8g+oLVA2+NBOXDSI/4APAM1UTU6EMIsTk+sLTysrwfHY9PlEG/vJC2SG8lqmxJ5AIik8d8A4k+KY+N7wnAf6qfsUBj9qmRXtmD4OadmMCAkyYc62pZhGNoM2UUL1NWUQmuaGmM0WUM0femCStjdacZkMo5IFJpRk8w6Oq0KFkzq/txpWqsFkrVGFXlsEeNEJcG2FzLQVqzRSGDFSgQsO80RRXeL4RUq0h5K8jrhaPVE73CuOvThOk7OSMvxphcH4e7PGUQXwexWuAykBAbR/0hjR4gHRICzI/5DK3DeI/lUtGZbmlZbnJ3DA7dJoAk8ogdiW2I5aXEG46MtuLkBTp1mIXKd+8WrtBhuVOQOfXQYp0fYxI4HVe95nWBVWASUWI++LWrSQAddTVL/cmeSGPTNJi7kvDJbhuiu4EvQ+hCc4aPvV439b6NbyYZwKUXyntmXJzAM4Pue1YDc9wiSpDkhmOTO0E0zoMnxRl0Du8lupuLdZ+FJ97W93xsCAGvWM4nq4lagoI2yP2VedaBa71zEPv0n/j9cf9Efy2PxymN/T8//bRrJ+mB3d4/gM=);lineShape=1;" vertex="1" parent="1">
          <mxGeometry x="689.399567161603" y="370.0244739618596" width="22.80013434837708" height="43.03324582798163" as="geometry" />
        </mxCell>
        <mxCell id="r5jIDg_zJhUNZUnPyhJ6-67" value="" style="shape=stencil(rVjZbttADPwavxLc5Z7PafofAeLURt04cNzr70vVWNmkrAkK9E1RdsxrSI52Iw/vu6e37Sby+/l0/Lr9uX8+7zbyaRPj/nW3Pe3P+rSRx408vBxP2y+n4/fX58vfb0/Tyenp2/HH9Au/LjghqRMo8u/LC6bc/774fDl+2L/eHG+U2BwvlNL68RCoF3M+MIUAAJmq9SckYmShLyyoj3EdEBMVG8KUAwTolKxLmoVY1wGSKHUDEMGATtlaEGwhJcrRAFKkLgDQKdgspUoBALJQbgaQAzEDQPVpzZpoUOkSKNgY9CcqoF5JFK1LhamALJVO1VoomUpZB9REwbFb2QViqJWadanKcPJ++4TxezOgkGQAKMQO0Ae77gPU42wALcJ+6FrpZAGZGAHq4OYMqJRBDL2R2Bia0hvE0JWtzkIf7FoDVBt0DyRoajAPNs8IPAXURLNN3TOsnAKSZd+UOBREG+ScAfoGpUlbzrJPbSJ+9+LnzE0e7iOyn32TCUDwrrOv+SAqqISmvfIiTaCrFRDFFyKBUaaAsCh1QkErE5yFQAmMAQV0a6F9UIjk+aodISiGPEbjbc+hLJWFSxVuas16bx7QkYXmR5kGjVa7Mie7DuIxoNcAbrX3SAW3nAckzNY+VtQMKFSQSxq0HZb6JuLZx24KdEy+4uf3Nao1ajTxgPZfAey5pE7CHVS9qNQOQVqgzbP3hhoRsFWXoLilVaiCStdM0bF1Hgv3AWEM63nxNmpIbaigsoWb5AQCBF/p0mBPZyXfQs8ICDpnv9onm0jEBb+C1CaDSquKjDYGVX0MKq06tTjliheKVN+iKcMPAol+ZSWGezcqW23QgtMaoyefMBRAQWOwHRd1noOOC+K1QwxYMY25OC/2SgxCKF5gqUVUNtX+jtuUgP/s4y3UQH7Y68MCnedByZlzFEBuFkovDQGxdtwVlyIM1Y2JCIUne3kUKIO88xjM16/zBnwPfowyVBXBLwIeZb7P++VVAdKO0Qtm/fJHjf5vFxEfHteH653Hy/5wuFyZ3P7f35Hoq8v9ijz+AQ==);lineShape=1;" vertex="1" parent="1">
          <mxGeometry x="755.5889308025655" y="498.53146990903747" width="59.76694953143088" height="32.80938265867357" as="geometry" />
        </mxCell>
      </root>
    </mxGraphModel>
  </diagram>
</mxfile>
